SplineFontDB: 1.0
FontName: Beteckna
FullName: Beteckna
FamilyName: Beteckna
Weight: Medium
Copyright: Drawn by Johan Mattsson
Version: 001.400
ItalicAngle: 0
UnderlinePosition: -100
UnderlineWidth: 50
Ascent: 800
Descent: 200
NeedsXUIDChange: 1
XUID: [1021 458 2099711872 4098597]
UniqueID: 4098683
FSType: 0
OS2Version: 3
OS2_WeightWidthSlopeOnly: 0
OS2_UseTypoMetrics: 1
CreationTime: 1176121501
ModificationTime: 1179329523
PfmFamily: 17
TTFWeight: 500
TTFWidth: 5
LineGap: 90
VLineGap: 0
Panose: 2 0 6 3 0 0 0 0 0 0
OS2TypoAscent: 0
OS2TypoAOffset: 1
OS2TypoDescent: 0
OS2TypoDOffset: 1
OS2TypoLinegap: 0
OS2WinAscent: 0
OS2WinAOffset: 1
OS2WinDescent: 0
OS2WinDOffset: 1
HheadAscent: 0
HheadAOffset: 1
HheadDescent: 0
HheadDOffset: 1
OS2SubXSize: 650
OS2SubYSize: 699
OS2SubXOff: 0
OS2SubYOff: 479
OS2SupXSize: 650
OS2SupYSize: 699
OS2SupXOff: 0
OS2SupYOff: 0
OS2StrikeYSize: 49
OS2StrikeYPos: 258
OS2Vendor: 'PfEd'
ScriptLang: 1
 1 latn 1 dflt 
TableOrder: GPOS 1
	'kern'
LangName: 1033 "" "" "" "FontForge 1.0 : Beteckna : 15-5-2007" 
Encoding: UnicodeBmp
UnicodeInterp: none
NameList: Adobe Glyph List
DisplaySize: -96
AntiAlias: 1
FitToEm: 1
WinInfo: 64 8 5
BeginPrivate: 8
BlueValues 15 [-20 0 688 707]
BlueScale 8 0.039625
BlueFuzz 1 1
StdHW 4 [82]
StdVW 4 [92]
SnapStemH 4 [82]
SnapStemV 7 [86 92]
ExpansionFactor 4 0.06
EndPrivate
BeginChars: 65537 115
StartChar: .notdef
Encoding: 65536 -1 0
Width: 500
Flags: MW
HStem: 0 50<100 400 100 450> 483 50<100 400 100 100>
VStem: 50 50<50 50 50 483> 400 50<50 483 483 483>
Fore
50 0 m 1
 50 533 l 1
 450 533 l 1
 450 0 l 1
 50 0 l 1
100 50 m 1
 400 50 l 1
 400 483 l 1
 100 483 l 1
 100 50 l 1
EndSplineSet
EndChar
StartChar: exclam
Encoding: 33 33 2
Width: 638
Flags: MW
HStem: 66.5781 1.92188
VStem: 270.738 124.523 285.438 90.562 290.719 90.562
Fore
290.719 695.938 m 1x90
 381.281 695.938 l 1x90
 376 255 l 1
 285.438 255 l 1xa0
 290.719 695.938 l 1x90
270.738 66.5781 m 0x80
 270.738 148.236 395.262 150.16 395.262 68.5 c 0
 395.262 -18.9209 270.738 -17.9619 270.738 66.5781 c 0x80
EndSplineSet
EndChar
StartChar: quotedbl
Encoding: 34 34 3
Width: 340
Flags: MW
HStem: 558 141
VStem: 25.7688 114.5 199.769 114.5
Fore
74.2686 558 m 1
 95.2686 591 129.001 626.5 140.27 696 c 1
 140.27 777.66 25.624 771.58 25.7686 699 c 0
 24.3115 671.697 65.2686 594 74.2686 558 c 1
248.269 558 m 1
 269.269 591 303.001 626.5 314.269 696 c 1
 314.269 777.66 199.624 771.58 199.769 699 c 0
 198.312 671.697 239.269 594 248.269 558 c 1
EndSplineSet
EndChar
StartChar: numbersign
Encoding: 35 35 4
Width: 455
Flags: MW
HStem: 219.103 86.695<345.445 345.445> 389.63 90.696<178.164 178.164>
VStem: 100.469 77.695<69.5 219.349 69.5 219.453 69.5 219.453 306.149 389.63 480.43 620> 267.75 77.695<69.5 219.103 69.5 219.207 69.5 219.207 305.902 389.384 480.184 620>
Fore
100.469 620 m 1
 178.164 620 l 1
 178.164 480.326 l 1
 267.75 480.184 l 1
 267.75 620 l 1
 345.445 620 l 1
 345.445 480.079 l 1
 404 480 l 1
 404 389.305 l 1
 345.445 389.384 l 1
 345.445 305.798 l 1
 404 305.719 l 1
 404 219.023 l 1
 345.445 219.103 l 1
 345.445 69.5 l 1
 267.75 69.5 l 1
 267.75 219.207 l 1
 178.164 219.349 l 1
 178.164 69.5 l 1
 100.469 69.5 l 1
 100.469 219.453 l 1
 42.6953 219.531 l 1
 42.6953 306.227 l 1
 100.469 306.149 l 1
 100.469 389.735 l 1
 42.6953 389.812 l 1
 42.6953 480.508 l 1
 100.469 480.43 l 1
 100.469 620 l 1
178.164 389.63 m 1
 178.164 306.044 l 1
 267.75 305.902 l 1
 267.75 389.488 l 1
 178.164 389.63 l 1
EndSplineSet
EndChar
StartChar: dollar
Encoding: 36 36 5
Width: 733
Flags: MW
HStem: 657.5 25.039<253.425 400>
VStem: 325 75<657.5 750> 330 75<-30 110>
Fore
330 110 m 1xa0
 405 110 l 1
 405 -30 l 1
 329.5 -30.5 l 1
 330 110 l 1xa0
325 750 m 1xc0
 400 750 l 1
 400 657.5 l 1
 324.5 657 l 1
 325 750 l 1xc0
351.4 682.539 m 0
 417.969 682.539 457.156 676.086 501.688 640.133 c 1
 460.719 578.367 l 1
 429.547 606.023 392.853 615.003 345.166 610.172 c 0
 257.656 598.648 222.477 479.727 353.844 429.023 c 2
 426.658 403.672 l 2
 504.588 373.711 604.555 279.219 544.438 143.242 c 0
 516.092 79.127 455.604 9.57031 288.611 32.6172 c 0
 216.614 45.9033 200.656 56.5859 156.125 80.5547 c 1
 172.156 169.977 l 1
 230.812 142.082 262.53 130.534 294.4 122.039 c 0
 350.064 103.602 421.977 113.281 462.055 173.203 c 0
 499.906 230.82 463.445 299.56 402.166 320.703 c 0
 375.447 332.227 359.506 339.32 330.688 349.742 c 0
 103.451 419.984 155.45 682.539 351.4 682.539 c 0
EndSplineSet
EndChar
StartChar: percent
Encoding: 37 37 6
Width: 560
Flags: MW
HStem: 82.5615 430.415
VStem: 75.9824 58.0176<423.56 471.606 423.56 515.309> 212.052 66.804<423.839 472.717> 319.126 62.178<148.661 201.031 148.661 240.997> 457.923 64.077<148.966 202.243>
Fore
381.304 175.301 m 0
 381.304 122.022 457.923 121.42 457.923 176.512 c 0
 457.923 227.974 381.304 226.762 381.304 175.301 c 0
319.126 173.507 m 0
 319.126 308.488 522 289.407 522 171 c 0
 522 44.2402 319.126 33.7627 319.126 173.507 c 0
134 448 m 0
 134 399.121 212.052 398.568 212.052 449.111 c 0
 212.052 496.324 134 495.212 134 448 c 0
75.9824 447.818 m 0
 75.9824 582.8 278.856 563.719 278.856 445.312 c 0
 278.856 318.552 75.9824 308.074 75.9824 447.818 c 0
455 512.976 m 1
 504.85 463.127 l 1
 125.698 82.5615 l 1
 75.8486 132.411 l 1
 455 512.976 l 1
EndSplineSet
EndChar
StartChar: ampersand
Encoding: 38 38 7
Width: 754
Flags: MW
HStem: -22.5 77.475
VStem: 547 83<346 346>
Fore
302.5 410 m 2
 225.44 488.628 239.494 541.434 270 577.5 c 0
 310.103 624.913 406.5 612 434 572 c 1
 489 624.5 l 1
 459 687 303.384 705.961 232.5 650 c 0
 192.09 618.097 127.984 536.986 188.403 421.424 c 1
 128.997 377.82 32.7372 280.831 66.5 150 c 0
 99 30 224 -30 326.5 -22.5 c 0
 413.277 -13.6516 475.233 16.7406 519.475 57.0798 c 1
 574 0 l 1
 692.5 0 l 1
 574.014 124.562 l 1
 622.207 205.885 628.936 299.167 630 346 c 1
 547 346 l 1
 550.049 298.956 539.195 240.334 513.679 187.991 c 1
 302.5 410 l 2
235.319 354.548 m 1
 463.545 115.63 l 1
 431.53 82.9455 390.139 59.8078 339 55 c 0
 291.5 50 181.5 85 154 170 c 0
 130.413 238.616 178.552 309.07 235.319 354.548 c 1
EndSplineSet
EndChar
StartChar: quotesingle
Encoding: 39 39 8
Width: 154
Flags: HMW
HStem: 558 141
VStem: 19.7686 114.5
Fore
74.2686 558 m 1
 91 581 132.269 647.5 132.269 699 c 1
 132.269 780.66 19.624 771.58 19.7686 699 c 1
 19.7686 645.5 58.5 581.5 74.2686 558 c 1
EndSplineSet
EndChar
StartChar: parenleft
Encoding: 40 40 9
Width: 268
Flags: MW
VStem: 39.9069 94.4082 41.0641 93.1416
Fore
39.9072 147.5 m 0x00
 52.7246 6.37695 129.4 -87.9668 228.019 -136.316 c 1
 228.019 -24.2119 l 1
 179.596 13.7021 144.027 70.8574 134.355 147.5 c 0
 132.628 161.194 133.112 494.688 134.206 505 c 0
 142.221 580.593 178.616 636.345 228.839 672.476 c 1
 228.839 775.211 l 1
 127.824 730.301 49.8301 639.623 39.9072 502.5 c 0
 39.2002 492.735 38.6611 161.224 39.9072 147.5 c 0x00
EndSplineSet
EndChar
StartChar: parenright
Encoding: 41 41 10
Width: 295
Flags: MW
VStem: 147.185 94.4082 147.294 93.1416
Fore
241.593 150 m 0x80
 228.775 8.87695 152.1 -85.4668 53.4814 -133.816 c 1
 53.4814 -21.7119 l 1
 101.904 16.2021 137.473 73.3574 147.145 150 c 0
 148.872 163.694 148.388 497.187 147.294 507.5 c 0x40
 139.279 583.093 102.884 638.845 52.6611 674.976 c 1
 52.6611 777.711 l 1
 153.676 732.801 231.67 642.123 241.593 505 c 0
 242.3 495.235 242.839 163.724 241.593 150 c 0x80
EndSplineSet
EndChar
StartChar: asterisk
Encoding: 42 42 11
Width: 212
Flags: HMW
HStem: 678.125 38.272<179.688 179.794>
VStem: 92 40<732.669 732.671>
Fore
179.688 678.125 m 1
 185.805 697.601 l 1
 179.794 716.397 l 1
 147.336 716.667 l 2
 142.396 716.667 132.138 725.328 132 732.669 c 2
 132 732.671 l 1
 132.197 755.201 l 1
 112.001 758.567 l 1
 92.2061 755.804 l 5
 92 732.669 l 2
 91.8018 726.689 82.0234 715.294 77.3301 715.332 c 2
 42.5469 715.909 l 1
 37.7969 697.602 l 1
 43 678.125 l 1
 69.3281 678.125 l 2
 76.6667 678.667 82 672 74.667 665.998 c 2
 41.1172 633.713 l 1
 50.2002 616.801 l 1
 67.5 605 l 1
 107.667 644.581 l 1
 107.667 644.581 110.313 647.063 112.616 647.153 c 0
 114.616 647.231 117 644.978 117 644.978 c 1
 157.5 605 l 1
 173.802 616.798 l 1
 183.883 633.713 l 1
 151.332 666.024 l 2
 145.329 670.67 142.667 678 151.337 677.999 c 2
 179.688 678.125 l 1
EndSplineSet
EndChar
StartChar: plus
Encoding: 43 43 12
Width: 495
Flags: MW
HStem: 315.656 90.5625
VStem: 203.438 90.5625 206.887 86.5615
Fore
430.5 315.656 m 1xa0
 430.5 406.219 l 1
 293.448 404.78 l 1xa0
 294 549 l 1
 203.438 549 l 1xc0
 206.887 403.496 l 1
 64 404.562 l 1
 64 314 l 1
 204.171 314.935 l 1
 204.656 160 l 1
 295.219 160 l 1
 294.732 315.218 l 1
 430.5 315.656 l 1xa0
EndSplineSet
KernsSLIFO: 21 -107 0 0 19 -108 0 0
EndChar
StartChar: comma
Encoding: 44 44 13
Width: 154
Flags: MW
HStem: -55 124
VStem: 19.7617 114.5
Fore
19.7617 69 m 0
 19.6172 141.58 134.262 147.66 134.262 66 c 0
 133.262 -3.5 63.2617 -40.5 38.7617 -55 c 1
 54.541 -35.9619 88.2617 35 63.7617 28 c 0
 42.2617 21.5 18.877 41.543 19.7617 69 c 0
EndSplineSet
EndChar
StartChar: hyphen
Encoding: 45 45 14
Width: 480
Flags: MW
HStem: 315.656 90.5625
Fore
434.5 315.656 m 1
 434.5 406.219 l 1
 45.5 405 l 1
 45.5 314.438 l 1
 434.5 315.656 l 1
EndSplineSet
EndChar
StartChar: period
Encoding: 46 46 15
Width: 154
Flags: MW
HStem: 64.0781 1.92188
VStem: 14.7383 124.523
Fore
14.7383 64.0781 m 1
 14.7383 64.0781 l 1
 14.7383 145.736 139.262 147.66 139.262 66 c 0
 139.262 -21.4209 14.7383 -20.4619 14.7383 64.0781 c 1
EndSplineSet
EndChar
StartChar: slash
Encoding: 47 47 16
Width: 500
Flags: MW
HStem: 0 21G<65.5 172.287 65.5 65.5>
VStem: 65.5 374.506
Fore
172.287 0 m 1
 65.5 0 l 1
 340 702.5 l 1
 440.006 703.701 l 1
 172.287 0 l 1
EndSplineSet
KernsSLIFO: 16 -168 0 0
EndChar
StartChar: zero
Encoding: 48 48 17
Width: 569
Flags: MW
VStem: 31.2197 91.3818 445.108 92.501<357.5 407.447>
Fore
122.602 366.92 m 0
 122.602 279.021 135.702 215.387 167.108 170.836 c 0
 226.585 86.4678 336.021 75.2998 396.108 154.897 c 0
 428.337 197.592 445.108 267.673 445.108 360 c 0
 445.108 454.894 425.752 523.225 388.108 564.67 c 0
 322.462 636.945 211.488 628.458 157.108 535.496 c 0
 133.592 495.295 122.602 438.482 122.602 366.92 c 0
31.2197 360.797 m 0
 31.2197 456.562 49.667 533.02 85.1084 588.229 c 0
 172.08 723.711 348.304 736.271 452.108 628.814 c 0
 506.922 572.074 537.609 481.591 537.609 357.5 c 0
 540.014 239.09 516.99 147.587 473.029 88 c 0
 378.38 -40.2988 196.85 -28.542 99.1084 101.368 c 0
 53.4355 162.072 31.2197 246.886 31.2197 360.797 c 0
EndSplineSet
KernsSLIFO: 17 -23 0 0
EndChar
StartChar: one
Encoding: 49 49 18
Width: 391
Flags: MW
HStem: 0 21G<163.56 261.06 163.56 163.56>
VStem: 161.13 97.43<512.645 604.689>
Fore
161.13 512.645 m 1
 135.44 484.822 l 1
 72.9404 539.822 l 1
 206.69 665.76 l 1
 257.94 719.822 l 1
 258.56 605 l 1
 258.69 604.822 l 1
 258.56 604.689 l 1
 259.98 77.625 l 1
 260.998 77.625 l 1
 261.06 0 l 1
 163.56 0 l 1
 163.498 77.625 l 1
 162.418 77.625 l 1
 161.13 512.645 l 1
EndSplineSet
EndChar
StartChar: two
Encoding: 50 50 19
Width: 540
Flags: MW
HStem: -0.5625 89.0068
VStem: 26.5 487<0 90.5625>
Fore
26.5 0 m 1
 341.5 389 l 2
 411.5 495 393.5 595 305.5 615 c 0
 266.3 623.909 190.5 606 170.5 546 c 1
 92.5 596 l 1
 140.5 696 236.468 702.941 284.5 702 c 0
 488.5 698 551.5 494 393.5 312 c 2
 221.3 88.4443 l 1
 513.5 90.5625 l 1
 513.5 0 l 1
 126.5 -0.5625 l 1
 126.5 0 l 1
 26.5 0 l 1
EndSplineSet
EndChar
StartChar: three
Encoding: 51 51 20
Width: 510
Flags: MW
HStem: -8 88 334 80<283.57 293.07>
VStem: 29.0703 368.539
Fore
283.57 414 m 1
 342.665 423.901 381.07 508 351.07 568 c 0
 336.086 597.97 309.943 612.529 277.07 620 c 0
 238.469 627.489 165 624 135 572 c 1
 59 620 l 1
 115 696 214.968 702.941 263 702 c 0
 441.321 698.504 516.531 519.267 397.609 391.378 c 1
 574.595 208.14 444.301 -7.88184 243.07 -8 c 0
 191.996 -9.88086 123.07 -6 29.0703 44 c 1
 87.3105 111.9 l 1
 163.782 75.1562 203.07 78 247.07 80 c 0
 397.07 80 429.07 288 293.07 334 c 1
 201.57 334.5 l 1
 199.07 412 l 1
 283.57 414 l 1
EndSplineSet
EndChar
StartChar: four
Encoding: 52 52 21
Width: 477
Flags: MW
HStem: 0 21G<316.75 416.75 316.75 316.75> 161.5 81.1855 702 20G<371.75 413.75 413.75 413.75>
VStem: 319.25 94.5
Fore
319.361 242.689 m 1
 319.25 511 l 1
 139.861 242.686 l 1
 319.361 242.689 l 1
413.75 722 m 1
 414.2 244.5 l 1
 460.25 244.5 l 1
 459.25 159 l 1
 416.75 159 l 1
 416.75 0 l 1
 316.75 0 l 1
 316.75 161.5 l 1
 123.75 161.5 l 1
 16.75 162.5 l 1
 16.75 205 l 1
 371.75 722 l 1
 413.75 722 l 1
EndSplineSet
EndChar
StartChar: five
Encoding: 53 53 22
Width: 509
Flags: MW
HStem: 4 78.5<209.338 371.757> 352.5 70<201.257 227.021> 620 80<203.757 402.757>
VStem: 110.257 91
Fore
111.257 700 m 1
 110.257 347.5 l 1
 227.021 352.5 l 2
 267.756 350.062 310.248 336.323 343.521 310 c 0
 422.522 247.5 378.287 84.5059 245.257 82.5 c 0
 173.419 82.5 140.919 97.5 78.4189 135 c 1
 30.4189 73 l 1
 80.4189 38 165.919 0 249.257 4 c 0
 494.257 4 540.757 284 399.257 379 c 0
 340.477 418.464 293.757 425 201.257 422.5 c 1
 203.757 620 l 1
 405.257 620 l 1
 402.757 700 l 1
 111.257 700 l 1
EndSplineSet
EndChar
StartChar: six
Encoding: 54 54 23
Width: 590
Flags: HMW
VStem: 445 86.473<195.046 264.948 195.046 267.531>
Fore
50 270 m 0
 47.4316 325.226 35 437.5 87.5 560 c 0
 125.748 649.246 223.5 702.5 316 702.5 c 0
 378.429 702.529 417.5 695 442.5 680 c 1
 405 602.5 l 1
 397 610.5 372.5 625 315 625 c 0
 207.239 625 132.5 532.5 132.5 375 c 1
 132.5 370.533 132.604 369.021 133.166 366.67 c 1
 202.5 420 260.176 432.018 312.5 432.882 c 0
 391.33 434.184 448.833 406.667 472.5 377.5 c 1
 500 342.5 522.393 323.534 524.966 229.682 c 1
 525.863 172.485 501.796 121.796 470 90 c 0
 418.993 38.9932 365.592 25.0283 287.5 25 c 0
 203.448 24.9697 140.56 66.2842 95 132.5 c 0
 72.083 165.806 52 227 50 270 c 0
156.5 245.5 m 0
 156.5 153.696 255 104 310 106.5 c 0
 372.635 109.347 438 162.5 438 238 c 0
 438 302.5 402.145 340.748 347.5 355.5 c 0
 310.633 362.229 298.476 360.463 262.5 351.5 c 0
 210.026 335.471 156.5 289.5 156.5 245.5 c 0
EndSplineSet
EndChar
StartChar: seven
Encoding: 55 55 24
Width: 481
Flags: MW
HStem: 0 21G<41.8516 164.639 164.639 164.639> 598.5 92.5<71.8242 71.8242 71.8242 324.736>
Fore
71.8242 691 m 1
 71.7363 598.5 l 1
 324.736 598.5 l 1
 41.8516 0 l 1
 164.639 0 l 1
 439.148 603.102 l 1
 437.764 606.273 l 1
 437.764 690 l 1
 71.8242 691 l 1
EndSplineSet
EndChar
StartChar: eight
Encoding: 56 56 25
Width: 555
Flags: HMW
VStem: 35.1719 101.3 65.8623 91.5986 387.805 93.0576 425.355 94.4727
Fore
65.8623 505 m 0x40
 65.8623 568.476 93.9785 629.549 134.862 660.786 c 0
 173.39 690.224 222.962 703.266 272 703.365 c 4
 320.111 703.463 367.71 691.139 403.862 665.767 c 0
 447.849 634.821 480.862 571.945 480.862 505 c 0x60
 478.862 469 456.862 431 420.744 382.627 c 1
 474.862 347 519.828 289.434 519.828 206.831 c 0x10
 519.828 149.628 508.699 106.463 480.862 71.1494 c 0
 434.756 12.6592 356.954 -17.291 278.862 -17.3193 c 0
 194.81 -17.3496 113.422 17.1279 67.8623 83.3438 c 0
 44.9453 116.65 35.1719 156.173 35.1719 205.778 c 0xa0
 35.1719 286.405 79.8623 343 130.118 379.46 c 1
 88.4863 423.93 67.8623 465 65.8623 505 c 0x40
136.472 211.711 m 1x90
 136.472 211.711 l 1
 136.472 29.5771 425.355 23.8477 425.355 212.184 c 0
 425.355 281.245 380.377 323.123 325.733 337.875 c 0
 288.866 344.605 267.313 345.311 231.337 336.348 c 0
 178.864 320.319 136.472 278.756 136.472 211.711 c 1x90
303.37 418.989 m 0
 350.213 429.671 387.805 464.739 387.805 524.997 c 0
 387.805 662.812 157.461 661.418 157.461 523.607 c 0x60
 157.461 463.579 194.475 428.192 243.148 418.325 c 0
 263.191 416.245 283.268 416.588 303.37 418.989 c 0
EndSplineSet
EndChar
StartChar: nine
Encoding: 57 57 26
Width: 515
Flags: HMW
VStem: 38.8848 93.0986 380.926 95.0576
Fore
131.983 501 m 0
 131.983 354.945 305.983 362 355.983 436 c 0
 371.983 456.5 379.663 492.66 380.926 507.997 c 0
 377.983 668 131.983 657 131.983 501 c 0
38.8848 495.393 m 0
 38.8848 634.977 143.254 705.581 250 709.618 c 0
 363.199 713.899 479.071 643.196 475.983 496 c 1
 475.875 490.839 476.327 500.945 475.983 496 c 1
 468.483 381 434 238 251.983 0 c 5
 127.983 1 l 1
 196.562 88.9209 302.5 227.5 337.925 322.5 c 0
 341.617 332.402 335.206 312.318 337.925 322.5 c 1
 307.983 302 268.626 295.844 237.983 296 c 0
 140.14 296.5 38.8848 360.997 38.8848 495.393 c 0
EndSplineSet
EndChar
StartChar: colon
Encoding: 58 58 27
Width: 161
Flags: MW
HStem: 79.0781 1.92188 412.873 1.82652
VStem: 23.4883 124.523 24.9883 124.523
Fore
23.4883 79.0781 m 0xa0
 23.4883 160.736 148.012 162.66 148.012 81 c 0
 148.012 -6.4209 23.4883 -5.46191 23.4883 79.0781 c 0xa0
24.9883 412.873 m 0x10
 24.9883 490.479 149.512 492.308 149.512 414.699 c 0
 149.512 331.616 24.9883 332.527 24.9883 412.873 c 0x10
EndSplineSet
EndChar
StartChar: semicolon
Encoding: 59 59 28
Width: 154
Flags: MW
HStem: -32.5 124 418.515 1.8157
VStem: 11.7383 124.523 16.7617 114.5
Fore
16.7617 91.5 m 0x90
 16.6172 164.08 131.262 170.16 131.262 88.5 c 0
 130.262 19 60.2617 -18 35.7617 -32.5 c 1
 51.541 -13.4619 85.2617 57.5 60.7617 50.5 c 0
 39.2617 44 15.877 64.043 16.7617 91.5 c 0x90
11.7383 418.515 m 0x20
 11.7383 495.661 136.262 497.479 136.262 420.331 c 0
 136.262 337.739 11.7383 338.646 11.7383 418.515 c 0x20
EndSplineSet
EndChar
StartChar: less
Encoding: 60 60 29
Width: 618
Flags: MW
HStem: 136 460<522 528>
VStem: 76 452<374 596>
Fore
528 596 m 1
 135.051 402.285 l 1
 76 374 l 1
 152.031 330.918 l 1
 522 136 l 1
 523 239.112 l 1
 277.006 370.84 l 1
 528 496 l 1
 528 596 l 1
EndSplineSet
EndChar
StartChar: equal
Encoding: 61 61 30
Width: 665
Flags: MW
HStem: 201 88<112 114> 439 88<110 112>
Fore
114 289 m 1
 112 201 l 1
 554 200 l 1
 556 288 l 1
 114 289 l 1
110 527 m 1
 112 439 l 1
 554 438 l 1
 552 526 l 1
 110 527 l 1
EndSplineSet
EndChar
StartChar: greater
Encoding: 62 62 31
Width: 618
Flags: MW
HStem: 136 460<92 98>
VStem: 92 452<374 596 374 596>
Fore
92 596 m 1
 484.949 402.285 l 1
 544 374 l 1
 467.969 330.918 l 1
 98 136 l 1
 97 239.112 l 1
 342.994 370.84 l 1
 92 496 l 1
 92 596 l 1
EndSplineSet
EndChar
StartChar: question
Encoding: 63 63 32
Width: 548
Flags: MW
HStem: 64.0781 1.92188 677.5 71.912
VStem: 189.221 124.523 194.386 91.126 369.483 85.892
Fore
254.483 677.5 m 0xd8
 323.279 677.5 366.983 642.5 369.483 562.5 c 0
 370.744 522.168 334.212 489.015 306.975 461.715 c 2
 264.049 415.895 l 2
 219.594 370.09 194.386 336.207 194.386 252.753 c 2
 193.357 220 l 1
 284.483 220 l 1
 285.512 236.793 l 2
 285.512 300.598 284.317 313.677 336.085 369.594 c 2
 378.062 413.861 l 2
 430.587 467.941 455.375 510.828 455.375 567.737 c 0
 455.375 676.065 380.111 749.412 261.17 749.412 c 0
 183.59 749.412 134.483 725 92.625 678.744 c 1
 145 612.5 l 1
 150 630 186.739 677.5 254.483 677.5 c 0xd8
189.222 64.0781 m 0x80
 189.222 145.736 313.745 147.66 313.745 66 c 0
 313.745 -21.4209 189.222 -20.4619 189.222 64.0781 c 0x80
EndSplineSet
EndChar
StartChar: at
Encoding: 64 64 33
Width: 905
Flags: HW
HStem: -97 67.5<427 427> 522.5 70<350.25 557.53>
VStem: 87.75 77.5<181.25 306.25 181.25 321.124> 265.973 73.668 740.28 70.9697
Fore
695 89.5 m 1
 633.5 50.5 580.751 18 438.5 18 c 0
 211 18 97.5 202 97.5 349.5 c 0
 97.5 434.944 125.618 522.364 182.191 590 c 0
 242.974 662.67 360 709.5 463.5 709.5 c 0
 560 709.5 658.514 680.897 715 631.549 c 0
 790.673 565.439 821 467.482 821 371 c 0
 821 299.5 811.5 261 753.75 210.5 c 0
 684.093 149.588 566.93 166.137 537 226 c 1
 440.903 160.089 276.071 204.838 273.723 363.316 c 0
 271.473 515.189 413.071 568.586 510.724 524.553 c 0
 519.648 520.528 530.63 513.456 536.485 504.089 c 1
 536.094 535.312 l 1
 608.757 535.312 l 1
 603.53 431.733 590.941 380.155 604.757 276.576 c 1
 616.723 241.192 680.25 230 712.25 262 c 0
 742.629 292.379 749.75 299.5 750.03 367 c 0
 750.344 442.596 725.988 518.343 670 571.225 c 0
 624.153 614.529 537.5 638.5 465 638.5 c 0
 377.5 638.5 279.952 602.192 234.159 542.5 c 0
 192.949 488.782 175 419.365 175 349.5 c 0
 175 247 271.047 89.4482 438.5 85.5 c 0
 565.75 82.5 602.999 112.5 646.499 139.5 c 1
 695 89.5 l 1
347.391 366.43 m 0
 347.391 247.926 505.967 228.39 533.666 326.58 c 0
 537.513 338.431 535.204 398.529 533.666 408.688 c 0
 505.196 514.497 347.391 490.017 347.391 366.43 c 0
EndSplineSet
EndChar
StartChar: A
Encoding: 65 65 34
Width: 814
Flags: MW
HStem: 183.371 82.3184
Fore
399.494 731.299 m 1
 439.99 638.658 l 1
 722.834 1.05664 l 1
 628.033 1.05664 l 1
 542.023 183.371 l 1
 267.342 183.371 l 1
 185.953 1.05664 l 1
 91.166 1.05664 l 1
 368.623 655.639 l 1
 399.494 731.299 l 1
504.111 265.689 m 1
 400.068 513.684 l 1
 303.408 265.689 l 1
 504.111 265.689 l 1
EndSplineSet
KernsSLIFO: 91 78 0 0 90 -105 0 0 89 77 0 0 88 -218 0 0 87 -199 0 0 85 -121 0 0 84 51 0 0 83 47 0 0 81 49 0 0 78 41 0 0 77 52 0 0 76 51 0 0 75 96 0 0 73 41 0 0 72 -42 0 0 71 49 0 0 69 45 0 0 67 40 0 0 66 86 0 0 59 57 0 0 58 -119 0 0 57 62 0 0 56 -208 0 0 55 -199 0 0 53 -121 0 0 51 42 0 0 49 44 0 0 45 50 0 0 44 47 0 0 43 67 0 0 40 -42 0 0 39 44 0 0 37 45 0 0 35 40 0 0 34 86 0 0 28 152 0 0 27 159 0 0 15 158 0 0 13 151 0 0
EndChar
StartChar: B
Encoding: 66 66 35
Width: 704
Flags: MW
HStem: 1.3125 93.625<364.216 364.216> 332.688 50.336 333.562 73.126 615.057 72.515
VStem: 137.948 86.557<94.9375 333.562 406.688 615.932>
Fore
137.948 687.572 m 1xd8
 337.091 687.572 l 1
 340.591 686.26 l 1
 527.04 690.043 569.915 447.365 426.961 386.444 c 0
 424.23 385.28 425.273 383.182 426.181 383.045 c 2
 426.444 383.024 l 2
 617.104 374.719 627.318 -6.48376 364.216 1.3125 c 1
 354.591 0 l 1
 186.511 0.4375 l 1
 186.511 0.875 l 1
 137.948 -0.4375 l 1
 137.948 687.572 l 1xd8
224.505 615.932 m 1
 224.505 406.688 l 1
 336.216 406.688 l 2xb8
 462.476 423.764 450.197 611.953 321.341 615.057 c 1
 321.341 615.932 l 1
 224.505 615.932 l 1
224.505 333.562 m 1
 224.505 94.9375 l 1
 377.777 94.9375 l 2
 515.085 97.2891 495.697 329.584 366.841 332.688 c 1xd8
 366.841 333.562 l 1
 224.505 333.562 l 1
EndSplineSet
KernsSLIFO: 90 -54 0 0 88 -131 0 0 87 -65 0 0 85 -45 0 0 59 -50 0 0 58 -69 0 0 57 -45 0 0 56 -66 0 0 55 -65 0 0 53 -45 0 0 28 97 0 0 27 99 0 0 15 99 0 0 14 75 0 0 13 94 0 0
EndChar
StartChar: C
Encoding: 67 67 36
Width: 858
Flags: MW
HStem: 615.859 86.5293
Fore
512.16 702.389 m 0
 561.078 700.57 613.612 692.908 660.727 670.883 c 1
 661.219 670.869 l 1
 693.553 655.693 698.23 651.32 723.946 628.967 c 1
 653.064 565.533 l 1
 633.362 592.166 550.935 614.369 511.244 615.859 c 0
 403.894 619.852 289.117 550.74 240.623 447.422 c 0
 175.9 309.527 234.305 162.223 372.213 97.5 c 0
 477.732 47.9668 591.434 75.959 679.713 142.5 c 1
 739.713 75 l 1
 617.213 -37.5 405.952 -28.3398 322.213 15 c 0
 137.26 110.703 68.0166 296.922 156.501 485.443 c 0
 222.781 626.674 365.394 707.871 512.16 702.389 c 0
EndSplineSet
KernsSLIFO: 88 -47 0 0 75 44 0 0 72 -55 0 0 68 -42 0 0 66 46 0 0 50 -41 0 0 40 -55 0 0 36 -42 0 0 34 46 0 0 28 133 0 0 27 138 0 0 15 137 0 0 14 -401 0 0 13 132 0 0
EndChar
StartChar: D
Encoding: 68 68 37
Width: 792
Flags: MW
HStem: 0 82.8516<227.314 227.314 227.314 230.951 227.314 378> 615 76.305<224.156 224.156>
VStem: 132.268 91.8882 132.268 95.046<82.8516 82.8516 82.8516 691.305>
Fore
237.951 691.305 m 2xe0
 299.502 693.861 290.52 690.999 347.613 690.744 c 0
 514 690 594 586 624 526 c 0
 712.38 337.003 657.695 87.834 450 16 c 0
 432.201 9.75684 403.128 4.25879 378 0 c 1
 330 0 295.159 -2.36465 230.951 0 c 2
 132.268 0 l 1
 132.268 691.305 l 1
 237.951 691.305 l 2xe0
546.648 476.172 m 0
 513.863 556.809 442.387 615.602 339.246 615.055 c 0
 304.328 614.877 296.686 616.354 224.156 615 c 1xe0
 227.314 82.8516 l 1xd0
 291.928 81.3613 369.843 76.1974 441.963 105.766 c 0
 584 164 579.912 394.373 546.648 476.172 c 0
EndSplineSet
KernsSLIFO: 91 -87 0 0 90 -65 0 0 89 -88 0 0 88 -112 0 0 87 -61 0 0 85 -47 0 0 75 -63 0 0 66 -46 0 0 59 -108 0 0 58 -78 0 0 57 -103 0 0 56 -64 0 0 55 -61 0 0 53 -47 0 0 43 -92 0 0 34 -46 0 0 28 122 0 0 27 121 0 0 15 54 0 0 14 91 0 0 13 48 0 0
EndChar
StartChar: E
Encoding: 69 69 38
Width: 660
Flags: HMW
HStem: 0 82.3047<234.967 517.51 234.967 517.51 234.967 517.51> 329.246 82.7832 608.014 85.3184
VStem: 142.49 92.4766
Fore
142.49 690.332 m 5
 142.49 0 l 1
 517.51 0 l 1
 517.51 82.3047 l 1
 234.967 82.3047 l 1
 234.967 329.246 l 1
 430.104 329.246 l 1
 430.104 412.029 l 1
 234.967 412.029 l 1
 234.967 608.014 l 1
 508.732 608.014 l 1
 508.732 690.332 l 5
 142.49 690.332 l 5
EndSplineSet
KernsSLIFO: 88 -55 0 0 82 -43 0 0 75 46 0 0 72 -77 0 0 68 -61 0 0 50 -62 0 0 48 -54 0 0 40 -77 0 0 36 -61 0 0 28 109 0 0 27 114 0 0 15 113 0 0 13 108 0 0
EndChar
StartChar: F
Encoding: 70 70 39
Width: 619
Flags: MW
HStem: 329.246 82.7832 609.014 82.3184
VStem: 133.386 92.4766
Fore
133.386 691.332 m 1
 133.386 0 l 1
 225.862 -0.0859375 l 1
 225.862 329.246 l 1
 421.001 329.246 l 1
 421.001 412.029 l 1
 225.862 412.029 l 1
 225.862 609.014 l 1
 485.614 609.014 l 1
 485.614 691.332 l 1
 133.386 691.332 l 1
EndSplineSet
KernsSLIFO: 91 -47 0 0 90 48 0 0 75 -144 0 0 72 -48 0 0 68 -46 0 0 66 -142 0 0 59 -68 0 0 50 -46 0 0 43 -173 0 0 40 -48 0 0 36 -46 0 0 34 -142 0 0 28 58 0 0 27 57 0 0 15 -138 0 0 13 -143 0 0
EndChar
StartChar: G
Encoding: 71 71 40
Width: 884
Flags: HMW
HStem: 290 75 632.721 87.3955
VStem: 671.185 90.9131 674.857 88.5801
Fore
763.438 365 m 1xd0
 762.098 116 l 2
 762.098 104 755.32 96.7598 743.864 90.5088 c 1
 673.584 25.9718 573.43 -0.201378 485 -2.5229 c 4
 419.295 -4.24784 360.061 7.19528 324.364 25.8535 c 0
 189.548 96.3186 128.028 205.973 121.205 317.5 c 0
 110.667 489.754 230.607 666.474 412.5 710.17 c 0
 444.63 717.889 478.693 721.457 514.312 720.116 c 0
 563.229 718.275 615.764 710.527 662.878 688.281 c 1
 663.369 688.281 l 1
 695.704 672.953 700.382 668.537 726.098 645.96 c 1
 655.216 581.893 l 1
 635.514 608.791 553.086 631.217 513.396 632.721 c 0
 480.59 633.953 447.09 628.29 415 616.853 c 0
 342.084 590.864 276.449 535.061 242.775 462.6 c 0
 219.02 411.482 211.851 359.084 219.113 310 c 0
 231.636 225.352 287.075 150.559 374.364 109.179 c 0
 409.723 92.4163 446.248 84.9394 482.5 84.9195 c 0
 549.324 84.8829 615.221 110.184 671.185 149.368 c 1xe0
 674.857 290 l 1
 537.438 290 l 1
 538.098 364 l 1
 763.438 365 l 1xd0
EndSplineSet
KernsSLIFO: 88 -66 0 0 82 45 0 0 80 50 0 0 28 134 0 0 27 133 0 0 15 131 0 0 14 104 0 0 13 127 0 0
EndChar
StartChar: H
Encoding: 72 72 41
Width: 764
Flags: MW
HStem: 311.312 82.688
VStem: 150.813 92.312<0.3125 0.3125> 573.625 90.563
Fore
573.625 693.5 m 1
 664.188 693.5 l 1
 664.188 -0.4375 l 1
 573.625 -0.4375 l 1
 573.625 311.312 l 1
 243.125 311.75 l 1
 243.125 0.0625 l 1
 150.813 0.3125 l 1
 150.812 689.562 l 1
 242.936 689.688 l 1
 243.125 617.312 l 1
 243.125 394.438 l 1
 573.625 394 l 1
 573.625 693.5 l 1
EndSplineSet
KernsSLIFO: 28 104 0 0 27 105 0 0 15 105 0 0 14 74 0 0 13 100 0 0
EndChar
StartChar: I
Encoding: 73 73 42
Width: 392
Flags: MW
HStem: 1 21G<151.219 241.781 151.219 151.219>
VStem: 150.219 90.5625
Fore
150.219 695.938 m 5
 240.781 695.938 l 5
 241.781 1 l 5
 151.219 1 l 5
 150.219 695.938 l 5
EndSplineSet
KernsSLIFO: 88 -54 0 0 28 104 0 0 27 105 0 0 15 105 0 0 14 74 0 0 13 100 0 0
EndChar
StartChar: J
Encoding: 74 74 43
Width: 520
Flags: MW
HStem: 680 20G<309.5 400.5 400.5 400.5>
VStem: 309.5 91<700 700> 316.375 93.625<222 227.687>
Fore
100 72 m 1xa0
 100 72 l 1
 197 1.21486 320 64 316.375 227.687 c 2xa0
 309.5 700 l 1
 400.5 700 l 1xc0
 410 222 l 2
 414 -22 195 -92.7852 59 -6.78516 c 1
 100 72 l 1xa0
EndSplineSet
KernsSLIFO: 90 63 0 0 87 51 0 0 85 40 0 0 82 53 0 0 80 58 0 0 58 50 0 0 56 52 0 0 55 51 0 0 53 40 0 0 48 43 0 0 28 142 0 0 27 142 0 0 15 128 0 0 14 113 0 0 13 123 0 0
EndChar
StartChar: K
Encoding: 75 75 44
Width: 799
Flags: MW
VStem: 130.964 92.4902
Fore
495.36 685.762 m 1
 608.604 685.762 l 1
 330.737 362.064 l 1
 668.036 -2.5 l 1
 553.165 -2.5 l 1
 223.454 357.826 l 1
 223.454 -2.5 l 1
 130.964 -2.5 l 1
 130.964 685.762 l 1
 223.454 685.762 l 1
 223.454 361.271 l 1
 495.36 685.762 l 1
EndSplineSet
KernsSLIFO: 91 40 0 0 88 -94 0 0 86 -60 0 0 82 -103 0 0 80 -102 0 0 75 58 0 0 72 -143 0 0 68 -128 0 0 66 48 0 0 54 -60 0 0 50 -121 0 0 48 -117 0 0 40 -143 0 0 36 -128 0 0 34 48 0 0 28 107 0 0 27 118 0 0 15 117 0 0 14 -157 0 0 13 106 0 0
EndChar
StartChar: L
Encoding: 76 76 45
Width: 630
Flags: MW
HStem: 2.24414 82.3047
VStem: 127.49 92.4766
Fore
219.967 690.258 m 1
 219.967 84.5488 l 1
 502.51 84.5488 l 1
 502.51 2.24414 l 1
 127.49 2.24414 l 1
 127.49 690.576 l 1
 219.967 690.258 l 1
EndSplineSet
KernsSLIFO: 91 43 0 0 90 -140 0 0 89 42 0 0 88 -227 0 0 87 -202 0 0 85 -156 0 0 75 61 0 0 72 -61 0 0 68 -46 0 0 66 51 0 0 58 -154 0 0 56 -212 0 0 55 -202 0 0 53 -156 0 0 50 -47 0 0 48 -43 0 0 40 -61 0 0 36 -46 0 0 34 51 0 0 28 124 0 0 27 129 0 0 15 128 0 0 14 -186 0 0 13 123 0 0
EndChar
StartChar: M
Encoding: 77 77 46
Width: 881
Flags: MW
VStem: 122.656 86.625<-1.01172 -1.01172>
Fore
446.5 330.5 m 1
 157.656 722.572 l 1
 122.656 -1.01172 l 1
 209.281 -1.01172 l 1
 239.906 460.043 l 1
 446.5 190.5 l 1
 649.805 456.557 l 1
 680.43 -4.49805 l 1
 767.055 -4.49805 l 1
 732.055 719.086 l 1
 446.5 330.5 l 1
EndSplineSet
KernsSLIFO: 88 -49 0 0 28 104 0 0 27 105 0 0 15 105 0 0 14 74 0 0 13 100 0 0
EndChar
StartChar: N
Encoding: 78 78 47
Width: 831
Flags: MW
VStem: 150.805 86.9395 592.326 87.8691 595.326 84.6943
Fore
237.744 467.393 m 1xa0
 237.744 3.40228 l 1
 150.805 3.40228 l 1
 150.805 699.875 l 1
 595.326 204.266 l 1xa0
 592.326 695.691 l 1
 680.195 695.664 l 1xc0
 680.021 -27.8926 l 1
 237.744 467.393 l 1xa0
EndSplineSet
KernsSLIFO: 88 -53 0 0 28 104 0 0 27 105 0 0 15 105 0 0 14 74 0 0 13 100 0 0
EndChar
StartChar: O
Encoding: 79 79 48
Width: 865
Flags: HMW
HStem: -2.99219 83.8233 627 80.435<251.577 418.541 411.829 418.541>
VStem: 411.829 15.487
Fore
411.829 627 m 1
 411.829 627 l 1
 385.711 627 361.769 623.372 340 616.706 c 0
 222.874 580.844 168.652 457.066 176.816 337.5 c 0
 184.603 223.455 249.147 113.242 370 86.8048 c 0
 387.874 82.8948 406.98 80.8173 427.316 80.8311 c 0
 444.794 80.8197 461.422 82.2591 477.191 85 c 0
 620.501 109.909 692.863 242.305 687.325 370 c 0
 682.438 482.712 616.86 591.761 485.812 620 c 0
 463.122 624.889 438.469 627.356 411.829 627 c 1
418.541 707.435 m 2
 418.541 707.435 l 2
 451.81 707.191 482.781 703.734 511.466 697.5 c 0
 691.317 658.411 781.308 510.131 784.413 360 c 4
 787.746 198.779 690.882 35.4234 497.5 2.85523 c 0
 474.694 -0.985562 450.546 -3.00739 425.062 -2.99219 c 0
 401.306 -3.00682 378.795 -1.11004 357.527 2.5 c 0
 178.362 32.9109 87.349 184.9 82.6908 340 c 0
 78.0739 493.729 158.292 650.514 321.593 695 c 0
 351.185 703.061 383.504 707.435 418.541 707.435 c 2
EndSplineSet
KernsSLIFO: 91 -70 0 0 89 -71 0 0 88 -64 0 0 82 52 0 0 80 57 0 0 75 -48 0 0 59 -91 0 0 58 -51 0 0 57 -86 0 0 48 42 0 0 43 -77 0 0 28 142 0 0 27 141 0 0 15 70 0 0 14 110 0 0 13 65 0 0
EndChar
StartChar: P
Encoding: 80 80 49
Width: 670
Flags: MW
HStem: 303.516 81.8125 609.328 82.25<339.936 340.646>
VStem: 133.708 92.75<3.39062 302.641 3.39062 385.328 385.328 610.203>
Fore
133.708 692.891 m 1
 340.646 691.578 l 2
 601.491 696.992 604.595 301.232 331.376 303.516 c 2
 226.458 302.641 l 1
 226.458 3.39062 l 1
 133.708 1.20312 l 1
 133.708 692.891 l 1
226.458 610.203 m 1
 226.458 385.328 l 1
 334.425 385.328 l 2
 467.083 385.369 478.391 606.238 339.936 609.328 c 2
 226.458 610.203 l 1
EndSplineSet
KernsSLIFO: 91 -58 0 0 89 -55 0 0 88 -77 0 0 75 -147 0 0 66 -131 0 0 59 -79 0 0 57 -70 0 0 43 -176 0 0 34 -131 0 0 28 95 0 0 27 94 0 0 15 -188 0 0 14 79 0 0 13 -193 0 0
EndChar
StartChar: Q
Encoding: 81 81 50
Width: 883
Flags: MW
HStem: -2.99219 83.8233 627 80.435
VStem: 411.829 348.171
Fore
418.541 707.435 m 1
 418.541 707.435 l 1
 783.417 704.762 871.887 315.752 699.852 114.585 c 1
 760 47.5 l 1
 684.844 -14.0938 l 1
 627.695 51.9059 l 1
 573.835 17.6543 506.226 -2.99127 425.062 -2.99216 c 0
 -33.1074 -2.99713 -28.0869 707.435 418.541 707.435 c 1
411.829 627 m 1
 411.829 627 l 1
 91.3242 627 98.5322 80.8273 427.316 80.8312 c 0
 483.129 80.8312 530.276 95.6155 568.457 120.318 c 1
 564.475 124.916 l 1
 496.5 201 l 1
 570 260 l 1
 623.855 199.346 l 1
 635.909 185.902 l 1
 747.393 345.578 681.254 630.602 411.829 627 c 1
EndSplineSet
KernsSLIFO: 90 -47 0 0 88 -82 0 0 87 -44 0 0 82 43 0 0 80 48 0 0 75 45 0 0 58 -60 0 0 56 -47 0 0 55 -44 0 0 28 132 0 0 27 131 0 0 15 112 0 0 14 101 0 0 13 107 0 0
EndChar
StartChar: R
Encoding: 82 82 51
Width: 740
Flags: MW
HStem: 312.625 81.8125 618.438 82.25<338.297 339.172>
VStem: 132.234 92.75 135.703 89.2812 135.703 92.75<0.828125 0.828125>
Fore
132.234 700 m 1xe0
 339.172 700.688 l 2
 556.541 705.199 594.658 431.228 443.297 341.062 c 1
 607.766 0.828125 l 1
 506.703 0.828125 l 1
 355.797 313.5 l 1
 347.525 312.775 338.844 312.556 329.984 312.625 c 2
 224.984 311.75 l 1xd0
 228.453 0.828125 l 1
 135.703 0.828125 l 1xc8
 132.234 700 l 1xe0
224.984 618.312 m 1xe0
 224.984 394.438 l 1
 333.047 394.438 l 2
 465.704 394.478 476.752 615.334 338.297 618.438 c 2
 224.984 618.312 l 1xe0
EndSplineSet
KernsSLIFO: 90 -68 0 0 88 -146 0 0 87 -79 0 0 86 -73 0 0 85 -59 0 0 82 -50 0 0 80 -45 0 0 75 54 0 0 72 -73 0 0 68 -75 0 0 66 44 0 0 58 -81 0 0 56 -80 0 0 55 -79 0 0 54 -73 0 0 53 -59 0 0 50 -68 0 0 48 -60 0 0 40 -73 0 0 36 -75 0 0 34 44 0 0 28 110 0 0 27 118 0 0 15 117 0 0 13 109 0 0
EndChar
StartChar: S
Encoding: 83 83 52
Width: 733
Flags: MW
HStem: 685 20G<245.249 392.628>
VStem: 136 436
Fore
355.257 705 m 0
 430 705 474 698 524 659 c 1
 478 592 l 1
 443 622 401.799 631.74 348.257 626.5 c 0
 250 614 210.5 485 358 430 c 2
 439.757 402.5 l 2
 527.257 370 639.5 267.5 572 120 c 0
 540.173 50.4512 472.257 -25 284.757 0 c 0
 203.918 14.4121 186 26 136 52 c 1
 154 149 l 1
 219.859 118.741 255.473 106.215 291.257 97 c 0
 353.757 77 434.5 87.5 479.5 152.5 c 0
 522 215 481.061 289.565 412.257 312.5 c 0
 382.257 325 364.357 332.695 332 344 c 0
 76.8574 420.195 135.242 705 355.257 705 c 0
EndSplineSet
KernsSLIFO: 88 -111 0 0 59 -40 0 0 28 107 0 0 27 112 0 0 15 111 0 0 14 79 0 0 13 106 0 0
EndChar
StartChar: T
Encoding: 84 84 53
Width: 694
Flags: MW
HStem: 606 80.305<119 576 119 576>
VStem: 298.168 92.832<-0.384766 0> 301.879 92.941<605.195 605.195>
Fore
119 686.305 m 1xa0
 576 686.305 l 1
 576 606 l 1
 394.82 605.195 l 1xa0
 391 0 l 1
 298.168 -0.384766 l 1xc0
 298.059 1.33789 l 1
 301.879 605.195 l 1
 119 606 l 1
 119 686.305 l 1xa0
EndSplineSet
KernsSLIFO: 90 70 0 0 87 58 0 0 85 46 0 0 75 -117 0 0 72 -42 0 0 68 -59 0 0 66 -124 0 0 59 -46 0 0 58 57 0 0 56 59 0 0 55 58 0 0 53 46 0 0 43 -146 0 0 40 -42 0 0 36 -59 0 0 34 -124 0 0 28 -47 0 0 27 -46 0 0 15 -47 0 0 14 -76 0 0 13 -52 0 0
EndChar
StartChar: U
Encoding: 85 85 54
Width: 764
Flags: MW
HStem: 264.266 420.422<139.85 231.245>
VStem: 139.85 92.75 530.057 90.5625 531.412 94.0625
Fore
231.245 684.688 m 1xd0
 232.6 266.453 l 2
 233.119 29.3281 525.096 27.9062 529.225 269.953 c 1
 531.412 267.766 l 1xd0
 530.057 682.5 l 1
 620.619 682.5 l 1xe0
 625.475 265.141 l 2
 629.973 -93.5957 127.039 -77.2715 139.85 264.266 c 2
 138.495 683.375 l 1
 231.245 684.688 l 1xd0
EndSplineSet
KernsSLIFO: 91 -55 0 0 88 -47 0 0 59 -76 0 0 43 -62 0 0 28 116 0 0 27 115 0 0 15 81 0 0 14 86 0 0 13 76 0 0
EndChar
StartChar: V
Encoding: 86 86 55
Width: 831
Flags: W
Fore
522.611 428.609 m 1
 636.533 693.242 l 1
 731.334 693.242 l 1
 407.994 -37 l 1
 377.123 38.6602 l 1
 99.666 693.242 l 1
 194.453 693.242 l 1
 306.908 428.609 l 1
 408.568 180.615 l 1
 522.611 428.609 l 1
EndSplineSet
KernsSLIFO: 90 81 0 0 87 70 0 0 85 57 0 0 83 42 0 0 81 41 0 0 77 44 0 0 76 43 0 0 75 -111 0 0 72 -55 0 0 71 41 0 0 68 -61 0 0 66 -198 0 0 58 68 0 0 56 70 0 0 55 70 0 0 53 57 0 0 50 -43 0 0 45 42 0 0 43 -140 0 0 40 -55 0 0 36 -61 0 0 34 -198 0 0 15 -101 0 0 13 -106 0 0
EndChar
StartChar: W
Encoding: 87 87 56
Width: 963
Flags: W
Fore
462.5 370 m 1
 621.944 -19.2744 l 1
 864 692 l 1
 777.025 692.916 l 1
 618.288 227.824 l 1
 475.688 559 l 1
 459.5 597.5 l 1
 443.29 560.5 l 1
 299.516 226.596 l 1
 140.778 691.688 l 1
 52.5 692.5 l 1
 295.859 -20.5029 l 1
 462.5 370 l 1
EndSplineSet
KernsSLIFO: 90 81 0 0 87 70 0 0 85 57 0 0 83 42 0 0 81 41 0 0 77 44 0 0 76 43 0 0 75 -111 0 0 72 -59 0 0 71 41 0 0 68 -64 0 0 66 -198 0 0 58 68 0 0 56 70 0 0 55 70 0 0 53 57 0 0 50 -45 0 0 45 42 0 0 43 -140 0 0 40 -59 0 0 36 -64 0 0 34 -198 0 0 15 -112 0 0 13 -117 0 0
EndChar
StartChar: X
Encoding: 88 88 57
Width: 835
Flags: W
Fore
128.447 0.400391 m 1
 194.305 92.7539 l 1
 391.51 389.611 l 1
 265.679 569.975 l 1
 174.444 697.6 l 1
 296 698 l 1
 386.054 569.975 l 1
 448.972 476.11 l 1
 518.985 581.502 l 1
 596 696 l 1
 701.514 696.754 l 1
 621.866 576.32 l 1
 622.303 575.883 l 1
 503.175 395.248 l 1
 708.054 89.5996 l 1
 707.616 89.1621 l 1
 765.888 -0.525391 l 1
 661.377 0.228516 l 1
 604.735 83.9805 l 1
 447.001 310.072 l 1
 303.68 92.7539 l 1
 248 0 l 1
 128.447 0.400391 l 1
EndSplineSet
KernsSLIFO: 91 54 0 0 89 53 0 0 82 -64 0 0 80 -64 0 0 75 72 0 0 72 -95 0 0 68 -85 0 0 66 62 0 0 50 -83 0 0 48 -78 0 0 43 43 0 0 40 -95 0 0 36 -85 0 0 34 62 0 0 28 126 0 0 27 134 0 0 15 133 0 0 14 -68 0 0 13 125 0 0
EndChar
StartChar: Y
Encoding: 89 89 58
Width: 704
Flags: MW
VStem: 296.219 105.875<0.375 2.5625> 303.688 98.875
Fore
65 692.5 m 1x40
 170 692.5 l 1
 352.062 417.688 l 1
 530.562 692.5 l 1
 636 692.5 l 1
 403 334 l 1
 402.562 334 l 1x40
 402.094 2.5625 l 1
 296.219 0.375 l 1x80
 303.688 330.438 l 1
 304.125 330.438 l 1
 65 692.5 l 1x40
EndSplineSet
KernsSLIFO: 90 79 0 0 87 68 0 0 85 55 0 0 83 40 0 0 77 42 0 0 76 41 0 0 75 -113 0 0 72 -71 0 0 68 -79 0 0 66 -123 0 0 58 66 0 0 56 68 0 0 55 68 0 0 53 55 0 0 50 -53 0 0 48 -46 0 0 45 40 0 0 43 -142 0 0 40 -71 0 0 36 -79 0 0 34 -123 0 0 15 -46 0 0 13 -51 0 0
EndChar
StartChar: Z
Encoding: 90 90 59
Width: 795
Flags: MW
HStem: 0.400391 92.3535<120.446 186.304> 597.285 84.506
Fore
212.5 682 m 1
 682.211 681.791 l 1
 624.939 592.103 l 1
 625.377 591.666 l 1
 295.679 92.7539 l 1
 674.554 92.7539 l 1
 674.554 2.19141 l 1
 120.446 0.400391 l 1
 186.304 92.7539 l 1
 522.057 597.285 l 1
 218.555 597.494 l 1
 212.5 682 l 1
EndSplineSet
KernsSLIFO: 91 50 0 0 90 60 0 0 89 49 0 0 87 49 0 0 75 68 0 0 72 -43 0 0 66 58 0 0 58 47 0 0 56 49 0 0 55 49 0 0 40 -43 0 0 34 58 0 0 28 131 0 0 27 136 0 0 15 135 0 0 14 -49 0 0 13 130 0 0
EndChar
StartChar: bracketleft
Encoding: 91 91 60
Width: 348
Flags: MW
HStem: 0.494141 91.8238<154.934 283.799 154.934 155> 609.494 92.827<154.5 281.299 154.5 154.566>
VStem: 60.4941 94.0059<702.321 703.701>
Fore
61.2129 0 m 1
 60.4941 703.701 l 1
 154.5 702.5 l 1
 154.5 702.321 l 1
 282.5 702.5 l 1
 281.299 609.494 l 1
 154.566 609.494 l 1
 154.934 92.3179 l 1
 285 92.5 l 1
 283.799 0.494141 l 1
 155 0.494141 l 1
 155 0 l 1
 61.2129 0 l 1
EndSplineSet
EndChar
StartChar: backslash
Encoding: 92 92 61
Width: 492
Flags: MW
HStem: 0 21G<320.213 320.213 320.213 427>
VStem: 52.4941 374.506
Fore
320.213 0 m 1
 52.4941 703.701 l 1
 152.5 702.5 l 1
 427 0 l 1
 320.213 0 l 1
EndSplineSet
EndChar
StartChar: bracketright
Encoding: 93 93 62
Width: 344
Flags: MW
HStem: 0.494141 91.8233 609.494 92.826<53.7012 180.5>
VStem: 180 93.787<0 0 0 0.494125 0 0.494125>
Fore
273.787 0 m 1
 180 -1.52588e-05 l 1
 180 0.494125 l 1
 51.2012 0.494125 l 1
 50 92.5 l 1
 180.065 92.3174 l 1
 180.434 609.494 l 1
 53.7012 609.494 l 1
 52.5 702.5 l 1
 180.5 702.32 l 1
 180.5 702.5 l 1
 274.506 703.701 l 1
 273.787 0 l 1
EndSplineSet
EndChar
StartChar: asciicircum
Encoding: 94 94 63
Width: 605
Flags: MW
HStem: 529.219 204.281<161 312.75>
VStem: 161 290.5<529.219 530>
Fore
451.5 530 m 1
 312.75 733.5 l 1
 161 529.219 l 1
 252.5 530 l 1
 311.5 608 l 1
 364.5 530 l 1
 451.5 530 l 1
EndSplineSet
EndChar
StartChar: underscore
Encoding: 95 95 64
Width: 559
Flags: MW
HStem: -82.5 82.3047<47.5 511>
Fore
511 -0.195312 m 1
 511 -82.5 l 1
 47.5 -82.5 l 1
 47.5 0.123047 l 1
 511 -0.195312 l 1
EndSplineSet
EndChar
StartChar: grave
Encoding: 96 96 65
Width: 1000
Flags: MW
HStem: 791 194<362.5 452.5>
VStem: 301 201.5<837.5 912.5>
Fore
362.5 985 m 1
 301 912.5 l 1
 452.5 791 l 1
 502.5 837.5 l 1
 362.5 985 l 1
EndSplineSet
EndChar
StartChar: a
Encoding: 97 97 66
Width: 814
Flags: MW
HStem: 183.371 82.3184
Fore
399.494 731.299 m 1
 439.99 638.658 l 1
 722.834 1.05664 l 1
 628.033 1.05664 l 1
 542.023 183.371 l 1
 267.342 183.371 l 1
 185.953 1.05664 l 1
 91.166 1.05664 l 1
 368.623 655.639 l 1
 399.494 731.299 l 1
504.111 265.689 m 1
 400.068 513.684 l 1
 303.408 265.689 l 1
 504.111 265.689 l 1
EndSplineSet
KernsSLIFO: 91 78 0 0 90 -105 0 0 89 77 0 0 88 -218 0 0 87 -199 0 0 85 -121 0 0 84 -41 0 0 83 47 0 0 81 49 0 0 78 41 0 0 77 52 0 0 76 51 0 0 75 96 0 0 73 41 0 0 72 -42 0 0 71 49 0 0 69 45 0 0 67 40 0 0 66 86 0 0 59 57 0 0 58 -119 0 0 57 62 0 0 56 -208 0 0 55 -199 0 0 53 -121 0 0 51 42 0 0 49 44 0 0 45 50 0 0 44 47 0 0 43 67 0 0 40 -42 0 0 39 44 0 0 37 45 0 0 35 40 0 0 34 86 0 0 28 152 0 0 27 159 0 0 15 158 0 0 13 151 0 0
EndChar
StartChar: b
Encoding: 98 98 67
Width: 704
Flags: MW
HStem: 1.3125 93.625<364.216 364.216> 332.688 50.336 333.562 73.126 615.057 72.515
VStem: 137.948 86.557
Fore
137.947 687.572 m 1xd0
 337.091 687.572 l 1
 340.591 686.26 l 1
 527.039 690.043 569.914 447.365 426.961 386.444 c 0
 424.229 385.28 425.272 383.182 426.181 383.045 c 2
 426.443 383.024 l 2
 617.104 374.719 627.317 -6.4834 364.216 1.3125 c 1
 354.591 0 l 1
 186.511 0.4375 l 1
 186.511 0.875 l 1
 137.947 -0.4375 l 1
 137.947 687.572 l 1xd0
224.505 615.932 m 1
 224.505 406.688 l 1
 336.216 406.688 l 2xb0
 462.476 423.764 450.196 611.953 321.341 615.057 c 1
 321.341 615.932 l 1
 224.505 615.932 l 1
224.505 333.562 m 1
 224.505 94.9375 l 1
 377.776 94.9375 l 2
 515.085 97.2891 495.696 329.584 366.841 332.688 c 1xd0
 366.841 333.562 l 1
 224.505 333.562 l 1
EndSplineSet
KernsSLIFO: 90 -54 0 0 88 -131 0 0 87 -65 0 0 85 -45 0 0 66 -53 0 0 59 -50 0 0 58 -69 0 0 57 -45 0 0 56 -66 0 0 55 -65 0 0 53 -45 0 0 28 97 0 0 27 99 0 0 15 99 0 0 14 75 0 0 13 94 0 0
EndChar
StartChar: c
Encoding: 99 99 68
Width: 858
Flags: MW
HStem: 615.859 86.5293
Fore
512.16 702.389 m 0
 561.078 700.57 613.611 692.908 660.727 670.883 c 1
 661.219 670.869 l 1
 693.553 655.693 698.229 651.32 723.945 628.967 c 1
 653.063 565.533 l 1
 633.361 592.166 550.935 614.369 511.244 615.859 c 0
 403.894 619.852 289.116 550.74 240.623 447.422 c 0
 175.899 309.527 234.305 162.223 372.213 97.5 c 0
 477.731 47.9668 591.434 75.959 679.713 142.5 c 1
 739.713 75 l 1
 617.213 -37.5 405.951 -28.3398 322.213 15 c 0
 137.26 110.703 68.0166 296.922 156.501 485.443 c 0
 222.78 626.674 365.394 707.871 512.16 702.389 c 0
EndSplineSet
KernsSLIFO: 88 -47 0 0 75 44 0 0 72 -55 0 0 68 -42 0 0 66 46 0 0 50 -41 0 0 40 -55 0 0 36 -42 0 0 34 46 0 0 28 133 0 0 27 138 0 0 15 137 0 0 14 -401 0 0 13 132 0 0
EndChar
StartChar: d
Encoding: 100 100 69
Width: 792
Flags: MW
HStem: 0 82.8516 615 76.305
VStem: 132.268 91.8882 132.268 95.046
Fore
237.951 691.305 m 2xc0
 299.502 693.861 290.52 690.999 347.613 690.744 c 0
 514 690 594 586 624 526 c 0
 712.38 337.003 657.695 87.834 450 16 c 0
 432.201 9.75684 403.128 4.25879 378 0 c 1
 330 0 295.159 -2.36426 230.951 0 c 2
 132.268 0 l 1
 132.268 691.305 l 1
 237.951 691.305 l 2xc0
546.647 476.172 m 0
 513.863 556.809 442.387 615.602 339.246 615.055 c 0
 304.328 614.877 296.686 616.354 224.156 615 c 1
 227.313 82.8516 l 1
 291.928 81.3613 369.843 76.1973 441.963 105.766 c 0
 584 164 579.912 394.373 546.647 476.172 c 0
EndSplineSet
KernsSLIFO: 91 -87 0 0 90 -19 0 0 89 -88 0 0 88 -112 0 0 87 -61 0 0 85 -47 0 0 75 -63 0 0 66 -46 0 0 59 -108 0 0 58 -78 0 0 57 -103 0 0 56 -64 0 0 55 -61 0 0 53 -47 0 0 43 -92 0 0 34 -46 0 0 28 122 0 0 27 121 0 0 15 54 0 0 14 91 0 0 13 48 0 0
EndChar
StartChar: e
Encoding: 101 101 70
Width: 660
Flags: MW
HStem: 0 82.3047 329.246 82.7832 608.014 85.3184
VStem: 142.49 92.4766
Fore
142.49 693.332 m 1
 142.49 0 l 1
 517.51 0 l 1
 517.51 82.3047 l 1
 234.967 82.3047 l 1
 234.967 329.246 l 1
 430.104 329.246 l 1
 430.104 412.029 l 1
 234.967 412.029 l 1
 234.967 608.014 l 1
 508.732 608.014 l 1
 508.732 693.332 l 1
 142.49 693.332 l 1
EndSplineSet
KernsSLIFO: 88 -55 0 0 82 -43 0 0 75 46 0 0 72 -77 0 0 68 -61 0 0 50 -62 0 0 48 -54 0 0 40 -77 0 0 36 -61 0 0 28 109 0 0 27 114 0 0 15 113 0 0 13 108 0 0
EndChar
StartChar: f
Encoding: 102 102 71
Width: 609
Flags: MW
HStem: 329.246 82.7832 609.014 82.3184
VStem: 128.386 92.4766
Fore
128.386 691.332 m 1
 128.386 0 l 1
 220.862 -0.0859375 l 1
 220.862 329.246 l 1
 416.001 329.246 l 1
 416.001 412.029 l 1
 220.862 412.029 l 1
 220.862 609.014 l 1
 480.614 609.014 l 1
 480.614 691.332 l 1
 128.386 691.332 l 1
EndSplineSet
KernsSLIFO: 91 -42 0 0 90 53 0 0 87 41 0 0 75 -139 0 0 74 46 0 0 72 -43 0 0 68 -41 0 0 66 -137 0 0 59 -63 0 0 58 40 0 0 56 42 0 0 55 41 0 0 50 -41 0 0 43 -168 0 0 40 -43 0 0 36 -41 0 0 34 -137 0 0 28 63 0 0 27 62 0 0 15 -133 0 0 13 -138 0 0
EndChar
StartChar: g
Encoding: 103 103 72
Width: 884
Flags: HMW
HStem: 290 75 632.721 87.3955
VStem: 671.185 90.9131 674.858 88.5801
Fore
763.438 365 m 1xc0
 762.099 116 l 2
 762.099 104 755.32 96.7598 743.864 90.5088 c 1
 677.53 29.5957 584.583 2.85892 500 -1.90365 c 0
 428.382 -5.93619 362.759 5.78524 324.364 25.8535 c 0
 267.794 55.4212 224.13 91.8891 191.997 132.5 c 0
 144.691 192.286 122.376 261.052 120.669 330 c 0
 119.14 391.737 134.133 453.62 162.5 509.334 c 0
 190.488 564.305 231.496 613.271 282.5 650.166 c 0
 346.158 696.216 425.388 723.463 514.312 720.116 c 0
 563.229 718.275 615.765 710.527 662.879 688.281 c 1
 663.369 688.281 l 1
 695.704 672.953 700.383 668.537 726.099 645.96 c 1
 655.217 581.893 l 1
 635.515 608.791 553.087 631.217 513.396 632.721 c 0
 452.697 635.001 389.623 613.675 337.5 575.845 c 4
 297.441 546.771 263.849 507.947 242.775 462.6 c 0
 223.011 420.07 214.729 376.655 216.686 335 c 0
 218.932 287.181 234.671 241.68 262.025 202.5 c 0
 288.874 164.042 326.913 131.674 374.364 109.179 c 0
 412.977 90.8738 452.98 83.6419 492.5 85.1021 c 0
 555.878 87.4436 618.015 112.14 671.186 149.368 c 1
 674.857 290 l 1
 537.438 290 l 1
 538.099 364 l 1
 763.438 365 l 1xc0
EndSplineSet
KernsSLIFO: 88 -66 0 0 82 45 0 0 80 50 0 0 28 134 0 0 27 133 0 0 15 131 0 0 14 104 0 0 13 127 0 0
EndChar
StartChar: h
Encoding: 104 104 73
Width: 736
Flags: MW
HStem: 311.312 82.688
VStem: 136.813 92.312 559.625 90.563
Fore
559.625 693.5 m 1
 650.188 693.5 l 1
 650.188 -0.4375 l 1
 559.625 -0.4375 l 1
 559.625 311.312 l 1
 229.125 311.75 l 1
 229.125 0.0625 l 1
 136.813 0.3125 l 1
 136.812 689.562 l 1
 228.936 689.688 l 1
 229.125 617.312 l 1
 229.125 394.438 l 1
 559.625 394 l 1
 559.625 693.5 l 1
EndSplineSet
KernsSLIFO: 90 45 0 0 75 52 0 0 66 42 0 0 34 42 0 0 28 118 0 0 27 119 0 0 15 119 0 0 14 88 0 0 13 114 0 0
EndChar
StartChar: i
Encoding: 105 105 74
Width: 366
Flags: MW
HStem: 1 21<138.219 228.781 138.219 138.219>
VStem: 137.219 90.5625
Fore
137.219 695.938 m 1
 227.781 695.938 l 1
 228.781 1 l 1
 138.219 1 l 1
 137.219 695.938 l 1
EndSplineSet
KernsSLIFO: 90 43 0 0 88 -41 0 0 77 61 0 0 75 51 0 0 66 41 0 0 34 41 0 0 28 117 0 0 27 118 0 0 15 118 0 0 14 87 0 0 13 113 0 0
EndChar
StartChar: j
Encoding: 106 106 75
Width: 462
Flags: MW
HStem: 680 20<280.5 371.5 371.5 371.5>
VStem: 280.5 91<700 700> 287.375 93.625<222 227.687>
Fore
71 72 m 1xa0
 168 1.21484 291 64 287.375 227.687 c 2xa0
 280.5 700 l 1
 371.5 700 l 1xc0
 381 222 l 2
 385 -22 166 -92.7852 30 -6.78516 c 1
 71 72 l 1xa0
EndSplineSet
KernsSLIFO: 91 40 0 0 90 92 0 0 89 40 0 0 87 80 0 0 86 47 0 0 85 69 0 0 84 59 0 0 83 58 0 0 82 82 0 0 81 58 0 0 80 87 0 0 78 50 0 0 77 61 0 0 76 60 0 0 75 54 0 0 74 49 0 0 73 50 0 0 72 65 0 0 71 58 0 0 70 44 0 0 69 54 0 0 68 68 0 0 67 49 0 0 66 55 0 0 58 79 0 0 56 81 0 0 55 80 0 0 54 47 0 0 53 69 0 0 52 45 0 0 51 53 0 0 50 63 0 0 49 53 0 0 48 72 0 0 45 59 0 0 44 56 0 0 40 65 0 0 39 53 0 0 38 44 0 0 37 54 0 0 36 68 0 0 35 49 0 0 34 55 0 0 28 171 0 0 27 171 0 0 15 157 0 0 14 142 0 0 13 152 0 0
EndChar
StartChar: k
Encoding: 107 107 76
Width: 791
Flags: MW
VStem: 126.964 92.4902
Fore
491.36 685.762 m 1
 604.604 685.762 l 1
 326.737 362.064 l 1
 664.036 -2.5 l 1
 549.165 -2.5 l 1
 219.454 357.826 l 1
 219.454 -2.5 l 1
 126.964 -2.5 l 1
 126.964 685.762 l 1
 219.454 685.762 l 1
 219.454 361.271 l 1
 491.36 685.762 l 1
EndSplineSet
KernsSLIFO: 91 44 0 0 89 43 0 0 88 -90 0 0 86 -56 0 0 82 -99 0 0 80 -98 0 0 75 62 0 0 72 -139 0 0 68 -124 0 0 66 52 0 0 54 -56 0 0 50 -117 0 0 48 -113 0 0 40 -139 0 0 36 -124 0 0 34 52 0 0 28 111 0 0 27 122 0 0 15 121 0 0 14 -153 0 0 13 110 0 0
EndChar
StartChar: l
Encoding: 108 108 77
Width: 626
Flags: MW
HStem: 2.24414 82.3047
VStem: 125.49 92.4766
Fore
217.967 690.258 m 1
 217.967 84.5488 l 1
 500.51 84.5488 l 1
 500.51 2.24414 l 1
 125.49 2.24414 l 1
 125.49 690.576 l 1
 217.967 690.258 l 1
EndSplineSet
KernsSLIFO: 91 45 0 0 90 -138 0 0 89 44 0 0 88 -225 0 0 87 -200 0 0 85 -154 0 0 75 63 0 0 72 -59 0 0 68 -44 0 0 66 53 0 0 58 -152 0 0 56 -210 0 0 55 -200 0 0 53 -154 0 0 50 -45 0 0 48 -41 0 0 40 -59 0 0 36 -44 0 0 34 53 0 0 28 126 0 0 27 131 0 0 15 130 0 0 14 -184 0 0 13 125 0 0
EndChar
StartChar: m
Encoding: 109 109 78
Width: 853
Flags: MW
VStem: 108.656 86.625
Fore
432.5 330.5 m 1
 143.656 722.572 l 1
 108.656 -1.01172 l 1
 195.281 -1.01172 l 1
 225.906 460.043 l 1
 432.5 190.5 l 1
 635.805 456.557 l 1
 666.43 -4.49805 l 1
 753.055 -4.49805 l 1
 718.055 719.086 l 1
 432.5 330.5 l 1
EndSplineSet
KernsSLIFO: 90 45 0 0 75 52 0 0 66 42 0 0 34 42 0 0 28 118 0 0 27 119 0 0 15 119 0 0 14 88 0 0 13 114 0 0
EndChar
StartChar: n
Encoding: 110 110 79
Width: 831
Flags: MW
VStem: 150.805 86.9395 592.326 87.8691 595.326 84.6943
Fore
237.744 467.393 m 1xa0
 237.744 3.40234 l 1
 150.805 3.40234 l 1
 150.805 699.875 l 1
 595.326 204.266 l 1xa0
 592.326 695.691 l 1
 680.195 695.664 l 1xc0
 680.021 -27.8926 l 1
 237.744 467.393 l 1xa0
EndSplineSet
KernsSLIFO: 88 -53 0 0 28 104 0 0 27 105 0 0 15 105 0 0 14 74 0 0 13 100 0 0
EndChar
StartChar: o
Encoding: 111 111 80
Width: 835
Flags: HMWO
HStem: -2.99219 83.8233 627 80.435
VStem: 397.327 15.487
Fore
397.326 627 m 0
 312.528 627 250.671 588.752 211.64 532.5 c 0
 180.723 487.943 164.128 432.09 161.798 375 c 0
 158.846 302.663 178.796 228.342 221.533 172.5 c 0
 263.429 117.756 327.225 80.7731 412.813 80.8311 c 0
 498.408 80.7752 563.622 115.517 607.368 167.5 c 0
 656.388 225.75 678.452 305.651 672.03 382.5 c 0
 665.105 465.355 625.068 544.664 550 589.471 c 0
 509.437 613.682 458.647 627.82 397.326 627 c 0
404.039 707.435 m 0
 479.454 706.883 543.061 689.819 595 661.318 c 0
 704.047 601.481 761.665 491.226 769.154 377.5 c 0
 775.932 274.579 741.653 168.813 667.282 95 c 4
 607.471 35.6384 521.73 -3.05826 410.56 -2.99219 c 0
 291.989 -3.06523 204.44 44.4792 147.538 115 c 0
 90.2955 185.943 64.0682 280.139 68.4757 372.5 c 0
 72.6355 459.671 104.084 545.208 162.5 608.021 c 0
 218.406 668.135 299.013 707.435 404.039 707.435 c 0
EndSplineSet
KernsSLIFO: 91 -56 0 0 89 -57 0 0 88 -49 0 0 83 42 0 0 82 67 0 0 81 42 0 0 80 72 0 0 77 45 0 0 76 44 0 0 72 50 0 0 71 42 0 0 68 52 0 0 59 -77 0 0 57 -72 0 0 50 48 0 0 48 57 0 0 45 43 0 0 44 40 0 0 43 -63 0 0 40 50 0 0 36 52 0 0 28 156 0 0 27 155 0 0 15 85 0 0 14 125 0 0 13 80 0 0
EndChar
StartChar: p
Encoding: 112 112 81
Width: 659
Flags: MW
HStem: 303.516 81.8125 609.328 82.25
VStem: 128.208 92.75
Fore
128.208 692.891 m 1
 335.146 691.578 l 2
 595.991 696.992 599.096 301.232 325.876 303.516 c 2
 220.958 302.641 l 1
 220.958 3.39062 l 1
 128.208 1.20312 l 1
 128.208 692.891 l 1
220.958 610.203 m 1
 220.958 385.328 l 1
 328.926 385.328 l 2
 461.583 385.369 472.892 606.238 334.437 609.328 c 2
 220.958 610.203 l 1
EndSplineSet
KernsSLIFO: 91 -52 0 0 89 -50 0 0 88 -72 0 0 75 -142 0 0 66 -126 0 0 59 -73 0 0 57 -65 0 0 43 -171 0 0 34 -126 0 0 28 100 0 0 27 99 0 0 15 -183 0 0 14 85 0 0 13 -188 0 0
EndChar
StartChar: q
Encoding: 113 113 82
Width: 845
Flags: HMW
HStem: -2.99219 83.8233 627 80.435
VStem: 393.329 348.171
Fore
400.041 707.435 m 0
 764.917 704.762 853.387 315.752 681.352 114.585 c 1
 741.5 47.5 l 1
 666.344 -14.0938 l 1
 609.195 51.9062 l 1
 555.335 17.6543 487.726 -2.99121 406.562 -2.99219 c 0
 -51.6074 -2.99707 -46.5869 707.435 400.041 707.435 c 0
393.329 627 m 0
 72.8242 627 80.0322 80.8271 408.815 80.8311 c 0
 464.629 80.8311 511.775 95.6152 549.957 120.318 c 1
 545.975 124.916 l 1
 478 201 l 1
 551.5 260 l 1
 605.354 199.346 l 1
 617.409 185.902 l 1
 728.893 345.578 662.754 630.602 393.329 627 c 0
EndSplineSet
KernsSLIFO: 91 45 0 0 89 44 0 0 88 59 0 0 82 62 0 0 80 67 0 0 77 40 0 0 75 64 0 0 72 45 0 0 68 47 0 0 66 53 0 0 58 -41 0 0 50 43 0 0 48 52 0 0 40 45 0 0 36 47 0 0 34 53 0 0 28 152 0 0 27 151 0 0 15 131 0 0 14 120 0 0 13 126 0 0
EndChar
StartChar: r
Encoding: 114 114 83
Width: 730
Flags: MW
HStem: 312.625 81.8125<324.984 324.984> 618.438 82.25
VStem: 127.234 92.75 130.703 89.2812 130.703 92.75
Fore
127.234 700 m 1xc0
 334.172 700.688 l 2
 551.541 705.199 589.658 431.228 438.297 341.062 c 1
 602.766 0.828125 l 1
 501.703 0.828125 l 1
 350.797 313.5 l 1
 342.525 312.775 333.844 312.556 324.984 312.625 c 2
 219.984 311.75 l 1xd0
 223.453 0.828125 l 1
 130.703 0.828125 l 1xc8
 127.234 700 l 1xc0
219.984 618.312 m 1xc0
 219.984 394.438 l 1
 328.047 394.438 l 2
 460.704 394.478 471.752 615.334 333.297 618.438 c 2
 219.984 618.312 l 1xc0
EndSplineSet
KernsSLIFO: 91 41 0 0 90 -63 0 0 89 40 0 0 88 -141 0 0 87 -74 0 0 86 -68 0 0 85 -54 0 0 84 -84 0 0 82 -45 0 0 80 -40 0 0 75 59 0 0 72 -68 0 0 68 -70 0 0 66 49 0 0 58 -76 0 0 56 -75 0 0 55 -74 0 0 54 -68 0 0 53 -54 0 0 50 -63 0 0 48 -55 0 0 40 -68 0 0 36 -70 0 0 34 49 0 0 28 115 0 0 27 123 0 0 15 122 0 0 13 114 0 0
EndChar
StartChar: s
Encoding: 115 115 84
Width: 705
Flags: MW
HStem: 685 20<231.25 378.628>
VStem: 122 436
Fore
341.257 705 m 0
 416 705 460 698 510 659 c 1
 464 592 l 1
 429 622 387.799 631.74 334.257 626.5 c 0
 236 614 196.5 485 344 430 c 2
 425.757 402.5 l 2
 513.258 370 625.5 267.5 558 120 c 0
 526.173 50.4512 458.257 -25 270.757 0 c 0
 189.918 14.4121 172 26 122 52 c 1
 140 149 l 1
 205.859 118.741 241.474 106.215 277.257 97 c 0
 339.757 77 420.5 87.5 465.5 152.5 c 0
 508 215 467.062 289.565 398.257 312.5 c 0
 368.257 325 350.357 332.695 318 344 c 0
 62.8574 420.195 121.242 705 341.257 705 c 0
EndSplineSet
KernsSLIFO: 88 -97 0 0 82 42 0 0 80 46 0 0 28 121 0 0 27 126 0 0 15 125 0 0 14 93 0 0 13 120 0 0
EndChar
StartChar: t
Encoding: 116 116 85
Width: 694
Flags: MW
HStem: 606 80.305
VStem: 298.168 92.832 301.879 92.941
Fore
119 686.305 m 1xa0
 576 686.305 l 1
 576 606 l 1
 394.82 605.195 l 1xa0
 391 0 l 1
 298.168 -0.384766 l 1xc0
 298.059 1.33789 l 1
 301.879 605.195 l 1
 119 606 l 1
 119 686.305 l 1xa0
EndSplineSet
KernsSLIFO: 90 70 0 0 87 58 0 0 85 46 0 0 75 -117 0 0 72 -42 0 0 68 -59 0 0 66 -124 0 0 59 -46 0 0 58 57 0 0 56 59 0 0 55 58 0 0 53 46 0 0 43 -146 0 0 40 -42 0 0 36 -59 0 0 34 -124 0 0 28 -47 0 0 27 -46 0 0 15 -47 0 0 14 -76 0 0 13 -52 0 0
EndChar
StartChar: u
Encoding: 117 117 86
Width: 764
Flags: MW
HStem: 264.266 420.422
VStem: 139.85 92.75 530.057 90.5625 531.413 94.0625
Fore
231.245 684.688 m 1x80
 232.601 266.453 l 2
 233.119 29.3281 525.097 27.9062 529.226 269.953 c 1
 531.412 267.766 l 1
 530.058 682.5 l 1
 620.619 682.5 l 1
 625.476 265.141 l 2
 629.974 -93.5957 127.039 -77.2715 139.851 264.266 c 2
 138.495 683.375 l 1
 231.245 684.688 l 1x80
EndSplineSet
KernsSLIFO: 91 -55 0 0 88 -47 0 0 59 -76 0 0 43 -62 0 0 28 116 0 0 27 115 0 0 15 81 0 0 14 86 0 0 13 76 0 0
EndChar
StartChar: v
Encoding: 118 118 87
Width: 831
Flags: W
Fore
522.611 428.609 m 1
 636.533 693.242 l 1
 731.334 693.242 l 1
 407.994 -37 l 1
 377.123 38.6602 l 1
 99.666 693.242 l 1
 194.453 693.242 l 1
 306.908 428.609 l 1
 408.568 180.615 l 1
 522.611 428.609 l 1
EndSplineSet
KernsSLIFO: 90 81 0 0 87 70 0 0 85 57 0 0 83 42 0 0 81 41 0 0 77 44 0 0 76 43 0 0 75 -111 0 0 72 -55 0 0 71 41 0 0 68 -61 0 0 66 -198 0 0 58 68 0 0 56 70 0 0 55 70 0 0 53 57 0 0 50 -43 0 0 45 42 0 0 43 -140 0 0 40 -55 0 0 36 -61 0 0 34 -198 0 0 15 -101 0 0 13 -106 0 0
EndChar
StartChar: w
Encoding: 119 119 88
Width: 789
Flags: W
Fore
462.5 370 m 1
 621.944 -19.2744 l 1
 864 692 l 1
 777.025 692.916 l 1
 618.288 227.824 l 1
 475.688 559 l 1
 459.5 597.5 l 1
 443.29 560.5 l 1
 299.516 226.596 l 1
 140.778 691.688 l 1
 52.5 692.5 l 1
 295.859 -20.5029 l 1
 462.5 370 l 1
EndSplineSet
KernsSLIFO: 90 96 0 0 88 171 0 0 87 85 0 0 86 46 0 0 85 72 0 0 83 57 0 0 81 56 0 0 78 48 0 0 77 59 0 0 76 58 0 0 75 -96 0 0 74 47 0 0 73 48 0 0 72 -44 0 0 71 56 0 0 70 42 0 0 69 52 0 0 68 -49 0 0 67 47 0 0 66 -183 0 0 58 83 0 0 56 85 0 0 55 85 0 0 54 46 0 0 53 72 0 0 51 52 0 0 49 51 0 0 45 57 0 0 44 54 0 0 43 -125 0 0 40 -44 0 0 39 51 0 0 38 42 0 0 37 52 0 0 36 -49 0 0 35 47 0 0 34 -183 0 0 15 -97 0 0 13 -102 0 0
EndChar
StartChar: x
Encoding: 120 120 89
Width: 805
Flags: W
Fore
113.447 0.400391 m 1
 179.305 92.7539 l 1
 376.51 389.611 l 1
 250.679 569.975 l 1
 159.444 697.6 l 1
 281 698 l 1
 371.054 569.975 l 1
 433.972 476.11 l 1
 503.985 581.502 l 1
 581 696 l 1
 686.514 696.754 l 1
 606.866 576.32 l 1
 607.303 575.883 l 1
 488.175 395.248 l 1
 693.054 89.5996 l 1
 692.616 89.1621 l 1
 750.888 -0.525391 l 1
 646.377 0.228516 l 1
 589.735 83.9805 l 1
 432.001 310.072 l 1
 288.68 92.7539 l 1
 233 0 l 1
 113.447 0.400391 l 1
EndSplineSet
KernsSLIFO: 91 69 0 0 89 68 0 0 82 -49 0 0 81 40 0 0 80 -49 0 0 77 43 0 0 76 42 0 0 75 87 0 0 72 -80 0 0 71 40 0 0 68 -70 0 0 66 77 0 0 59 48 0 0 57 53 0 0 50 -68 0 0 48 -63 0 0 45 41 0 0 43 58 0 0 40 -80 0 0 36 -70 0 0 34 77 0 0 28 141 0 0 27 149 0 0 15 148 0 0 14 -53 0 0 13 140 0 0
EndChar
StartChar: y
Encoding: 121 121 90
Width: 677
Flags: MW
VStem: 282.719 105.875 290.188 98.875
Fore
51.5 692.5 m 1x40
 156.5 692.5 l 1
 338.562 417.688 l 1
 517.062 692.5 l 1
 622.5 692.5 l 1
 389.5 334 l 1
 389.062 334 l 1x40
 388.594 2.5625 l 1
 282.719 0.375 l 1x80
 290.188 330.438 l 1
 290.625 330.438 l 1
 51.5 692.5 l 1x40
EndSplineSet
KernsSLIFO: 90 92 0 0 88 41 0 0 87 81 0 0 86 42 0 0 85 68 0 0 83 53 0 0 81 52 0 0 78 44 0 0 77 55 0 0 76 54 0 0 75 -100 0 0 74 43 0 0 73 44 0 0 72 -57 0 0 71 52 0 0 69 48 0 0 68 -66 0 0 67 43 0 0 66 -110 0 0 58 79 0 0 56 81 0 0 55 81 0 0 54 42 0 0 53 68 0 0 51 48 0 0 50 -40 0 0 49 47 0 0 45 53 0 0 44 50 0 0 43 -129 0 0 40 -57 0 0 39 47 0 0 37 48 0 0 36 -66 0 0 35 43 0 0 34 -110 0 0
EndChar
StartChar: z
Encoding: 122 122 91
Width: 753
Flags: MW
HStem: 0.400391 92.3535<99.4463 165.304> 597.285 84.506
Fore
191.5 682 m 1
 661.211 681.791 l 1
 603.939 592.104 l 1
 604.377 591.666 l 1
 274.679 92.7539 l 1
 653.554 92.7539 l 1
 653.554 2.19141 l 1
 99.4463 0.400391 l 1
 165.304 92.7539 l 1
 501.057 597.285 l 1
 197.555 597.494 l 1
 191.5 682 l 1
EndSplineSet
KernsSLIFO: 91 71 0 0 90 81 0 0 89 70 0 0 87 70 0 0 85 57 0 0 84 58 0 0 83 42 0 0 81 42 0 0 77 45 0 0 76 44 0 0 75 89 0 0 71 42 0 0 66 79 0 0 59 50 0 0 58 68 0 0 57 55 0 0 56 70 0 0 55 70 0 0 53 57 0 0 52 44 0 0 45 43 0 0 44 40 0 0 43 60 0 0 34 79 0 0 28 152 0 0 27 157 0 0 15 156 0 0 13 151 0 0
EndChar
StartChar: dieresis
Encoding: 168 168 92
Width: 718
Flags: MW
HStem: 804.552 1.92268 809.578 1.92188
VStem: 145.738 124.523 417.738 124.523
Fore
417.738 804.552 m 0
 417.738 886.244 542.262 888.169 542.262 806.475 c 0
 542.262 719.018 417.738 719.977 417.738 804.552 c 0
145.738 809.578 m 0
 145.738 891.236 270.262 893.16 270.262 811.5 c 0
 270.262 724.079 145.738 725.038 145.738 809.578 c 0
EndSplineSet
EndChar
StartChar: acute
Encoding: 180 180 93
Width: 1000
Flags: MW
HStem: 791 194<432.5 522.5>
VStem: 382.5 201.5<837.5 912.5>
Fore
522.5 985 m 1
 584 912.5 l 1
 432.5 791 l 1
 382.5 837.5 l 1
 522.5 985 l 1
EndSplineSet
EndChar
StartChar: Agrave
Encoding: 192 192 94
Width: 814
Flags: MW
HStem: 183.371 82.3184 797.299 194
VStem: 297.25 201.5<843.799 918.799>
Fore
358.75 991.299 m 1
 297.25 918.799 l 1
 448.75 797.299 l 1
 498.75 843.799 l 1
 358.75 991.299 l 1
399.494 731.299 m 1
 439.99 638.658 l 1
 722.834 1.05664 l 1
 628.033 1.05664 l 1
 542.023 183.371 l 1
 267.342 183.371 l 1
 185.953 1.05664 l 1
 91.166 1.05664 l 1
 368.623 655.639 l 1
 399.494 731.299 l 1
504.111 265.689 m 1
 400.068 513.684 l 1
 303.408 265.689 l 1
 504.111 265.689 l 1
EndSplineSet
EndChar
StartChar: Aacute
Encoding: 193 193 95
Width: 814
Flags: MW
HStem: 183.371 82.3184 794.299 194
VStem: 318.25 201.5<840.799 915.799>
Fore
458.25 988.299 m 1
 519.75 915.799 l 1
 368.25 794.299 l 1
 318.25 840.799 l 1
 458.25 988.299 l 1
399.494 731.299 m 1
 439.99 638.658 l 1
 722.834 1.05664 l 1
 628.033 1.05664 l 1
 542.023 183.371 l 1
 267.342 183.371 l 1
 185.953 1.05664 l 1
 91.166 1.05664 l 1
 368.623 655.639 l 1
 399.494 731.299 l 1
504.111 265.689 m 1
 400.068 513.684 l 1
 303.408 265.689 l 1
 504.111 265.689 l 1
EndSplineSet
EndChar
StartChar: Adieresis
Encoding: 196 196 96
Width: 814
Flags: MW
HStem: 183.371 82.3184 794.851 1.92268 799.877 1.92188
VStem: 208.738 124.523 480.738 124.523
Fore
480.738 794.851 m 0
 480.738 876.543 605.262 878.468 605.262 796.773 c 0
 605.262 709.316 480.738 710.275 480.738 794.851 c 0
208.738 799.877 m 0
 208.738 881.535 333.262 883.459 333.262 801.799 c 0
 333.262 714.378 208.738 715.337 208.738 799.877 c 0
399.494 731.299 m 1
 439.99 638.658 l 1
 722.834 1.05664 l 1
 628.033 1.05664 l 1
 542.023 183.371 l 1
 267.342 183.371 l 1
 185.953 1.05664 l 1
 91.166 1.05664 l 1
 368.623 655.639 l 1
 399.494 731.299 l 1
504.111 265.689 m 1
 400.068 513.684 l 1
 303.408 265.689 l 1
 504.111 265.689 l 1
EndSplineSet
EndChar
StartChar: Aring
Encoding: 197 197 97
Width: 694
Flags: MW
HStem: 183.371 82.3184 815.554 4
VStem: 267.349 45.5293 362.262 45
Fore
312.878 818.787 m 0
 312.878 785.077 362.262 784.697 362.262 819.555 c 0
 362.262 852.115 312.878 851.348 312.878 818.787 c 0
267.349 817.283 m 0
 267.349 910.373 407.262 897.214 407.262 815.555 c 0
 407.262 728.133 267.349 720.908 267.349 817.283 c 0
339.494 731.299 m 1
 379.99 638.658 l 1
 662.834 1.05664 l 1
 568.033 1.05664 l 1
 482.023 183.371 l 1
 207.342 183.371 l 1
 125.953 1.05664 l 1
 31.166 1.05664 l 1
 308.623 655.639 l 1
 339.494 731.299 l 1
444.111 265.689 m 1
 340.068 513.684 l 1
 243.408 265.689 l 1
 444.111 265.689 l 1
EndSplineSet
EndChar
StartChar: Egrave
Encoding: 200 200 98
Width: 660
Flags: MW
HStem: 0 82.3047 329.246 82.7832 608.014 85.3184 744.935 194
VStem: 142.49 92.4766 236.5 201.5<791.435 866.435>
Fore
298 938.935 m 1
 236.5 866.435 l 1
 388 744.935 l 1
 438 791.435 l 1
 298 938.935 l 1
142.49 693.332 m 1
 142.49 0 l 1
 517.51 0 l 1
 517.51 82.3047 l 1
 234.967 82.3047 l 1
 234.967 329.246 l 1
 430.104 329.246 l 1
 430.104 412.029 l 1
 234.967 412.029 l 1
 234.967 608.014 l 1
 508.732 608.014 l 1
 508.732 693.332 l 1
 142.49 693.332 l 1
EndSplineSet
EndChar
StartChar: Eacute
Encoding: 201 201 99
Width: 660
Flags: MW
HStem: 0 82.3047 329.246 82.7832 608.014 85.3184 752.435 194
VStem: 142.49 92.4766 229.25 201.5<798.935 873.935>
Fore
369.25 946.435 m 1x04
 430.75 873.935 l 1
 279.25 752.435 l 1
 229.25 798.935 l 1
 369.25 946.435 l 1x04
142.49 693.332 m 1xe8
 142.49 0 l 1
 517.51 0 l 1
 517.51 82.3047 l 1
 234.967 82.3047 l 1
 234.967 329.246 l 1
 430.104 329.246 l 1
 430.104 412.029 l 1
 234.967 412.029 l 1
 234.967 608.014 l 1
 508.732 608.014 l 1
 508.732 693.332 l 1
 142.49 693.332 l 1xe8
EndSplineSet
EndChar
StartChar: Odieresis
Encoding: 214 214 100
Width: 743
Flags: MW
HStem: -2.99219 83.8233 627 80.435 803.487 1.92268 808.513 1.92188
VStem: 175 124.523 350.829 15.487 447 124.523
Fore
447 803.487 m 0
 447 885.18 571.524 887.104 571.524 805.41 c 0
 571.524 717.952 447 718.912 447 803.487 c 0
175 808.514 m 0
 175 890.171 299.524 892.095 299.524 810.436 c 0
 299.524 723.015 175 723.974 175 808.514 c 0
350.829 627 m 0
 30.3242 627 37.5322 80.6084 366.316 80.8311 c 0
 707.109 80.6084 724.829 632 350.829 627 c 0
357.541 707.435 m 0
 849.812 703.829 838.97 -3.27441 364.062 -2.99219 c 0
 -94.1074 -3.27441 -89.0869 707.435 357.541 707.435 c 0
EndSplineSet
EndChar
StartChar: agrave
Encoding: 224 224 101
Width: 814
Flags: MW
HStem: 183.371 82.3184 797.299 194
VStem: 297.25 201.5<843.799 918.799>
Fore
358.75 991.299 m 1
 297.25 918.799 l 1
 448.75 797.299 l 1
 498.75 843.799 l 1
 358.75 991.299 l 1
399.494 731.299 m 1
 439.99 638.658 l 1
 722.834 1.05664 l 1
 628.033 1.05664 l 1
 542.023 183.371 l 1
 267.342 183.371 l 1
 185.953 1.05664 l 1
 91.166 1.05664 l 1
 368.623 655.639 l 1
 399.494 731.299 l 1
504.111 265.689 m 1
 400.068 513.684 l 1
 303.408 265.689 l 1
 504.111 265.689 l 1
EndSplineSet
EndChar
StartChar: aacute
Encoding: 225 225 102
Width: 814
Flags: MW
HStem: 183.371 82.3184 794.299 194
VStem: 318.25 201.5<840.799 915.799>
Fore
458.25 988.299 m 1
 519.75 915.799 l 1
 368.25 794.299 l 1
 318.25 840.799 l 1
 458.25 988.299 l 1
399.494 731.299 m 1
 439.99 638.658 l 1
 722.834 1.05664 l 1
 628.033 1.05664 l 1
 542.023 183.371 l 1
 267.342 183.371 l 1
 185.953 1.05664 l 1
 91.166 1.05664 l 1
 368.623 655.639 l 1
 399.494 731.299 l 1
504.111 265.689 m 1
 400.068 513.684 l 1
 303.408 265.689 l 1
 504.111 265.689 l 1
EndSplineSet
EndChar
StartChar: adieresis
Encoding: 228 228 103
Width: 694
Flags: MW
HStem: 183.371 82.3184 794.851 1.92268 799.877 1.92188
VStem: 208.738 124.523 480.738 124.523
Fore
480.738 794.851 m 0
 480.738 876.543 605.262 878.468 605.262 796.773 c 0
 605.262 709.316 480.738 710.275 480.738 794.851 c 0
208.738 799.877 m 0
 208.738 881.535 333.262 883.459 333.262 801.799 c 0
 333.262 714.378 208.738 715.337 208.738 799.877 c 0
399.494 731.299 m 1
 439.99 638.658 l 1
 722.834 1.05664 l 1
 628.033 1.05664 l 1
 542.023 183.371 l 1
 267.342 183.371 l 1
 185.953 1.05664 l 1
 91.166 1.05664 l 1
 368.623 655.639 l 1
 399.494 731.299 l 1
504.111 265.689 m 1
 400.068 513.684 l 1
 303.408 265.689 l 1
 504.111 265.689 l 1
EndSplineSet
EndChar
StartChar: aring
Encoding: 229 229 104
Width: 694
Flags: MW
HStem: 183.371 82.3184 815.554 4
VStem: 267.349 45.5293 362.262 45
Fore
312.878 818.787 m 0
 312.878 785.077 362.262 784.697 362.262 819.555 c 0
 362.262 852.115 312.878 851.348 312.878 818.787 c 0
267.349 817.283 m 0
 267.349 910.373 407.262 897.214 407.262 815.555 c 0
 407.262 728.133 267.349 720.908 267.349 817.283 c 0
339.494 731.299 m 1
 379.99 638.658 l 1
 662.834 1.05664 l 1
 568.033 1.05664 l 1
 482.023 183.371 l 1
 207.342 183.371 l 1
 125.953 1.05664 l 1
 31.166 1.05664 l 1
 308.623 655.639 l 1
 339.494 731.299 l 1
444.111 265.689 m 1
 340.068 513.684 l 1
 243.408 265.689 l 1
 444.111 265.689 l 1
EndSplineSet
EndChar
StartChar: egrave
Encoding: 232 232 105
Width: 660
Flags: MW
HStem: 0 82.3047 329.246 82.7832 608.014 85.3184 744.935 194
VStem: 142.49 92.4766 236.5 201.5<791.435 866.435>
Fore
298 938.935 m 1
 236.5 866.435 l 1
 388 744.935 l 1
 438 791.435 l 1
 298 938.935 l 1
142.49 693.332 m 1
 142.49 0 l 1
 517.51 0 l 1
 517.51 82.3047 l 1
 234.967 82.3047 l 1
 234.967 329.246 l 1
 430.104 329.246 l 1
 430.104 412.029 l 1
 234.967 412.029 l 1
 234.967 608.014 l 1
 508.732 608.014 l 1
 508.732 693.332 l 1
 142.49 693.332 l 1
EndSplineSet
EndChar
StartChar: eacute
Encoding: 233 233 106
Width: 660
Flags: MW
HStem: 0 82.3047 329.246 82.7832 608.014 85.3184 752.435 194
VStem: 142.49 92.4766 229.25 201.5<798.935 873.935>
Fore
369.25 946.435 m 1x04
 430.75 873.935 l 1
 279.25 752.435 l 1
 229.25 798.935 l 1
 369.25 946.435 l 1x04
142.49 693.332 m 1xe8
 142.49 0 l 1
 517.51 0 l 1
 517.51 82.3047 l 1
 234.967 82.3047 l 1
 234.967 329.246 l 1
 430.104 329.246 l 1
 430.104 412.029 l 1
 234.967 412.029 l 1
 234.967 608.014 l 1
 508.732 608.014 l 1
 508.732 693.332 l 1
 142.49 693.332 l 1xe8
EndSplineSet
EndChar
StartChar: odieresis
Encoding: 246 246 107
Width: 743
Flags: MW
HStem: -2.99219 83.8233 627 80.435 803.487 1.92268 808.513 1.92188
VStem: 175 124.523 350.829 15.487 447 124.523
Fore
447 803.487 m 0
 447 885.18 571.524 887.104 571.524 805.41 c 0
 571.524 717.952 447 718.912 447 803.487 c 0
175 808.514 m 0
 175 890.171 299.524 892.095 299.524 810.436 c 0
 299.524 723.015 175 723.974 175 808.514 c 0
350.829 627 m 0
 30.3242 627 37.5322 80.6084 366.316 80.8311 c 0
 707.109 80.6084 724.829 632 350.829 627 c 0
357.541 707.435 m 0
 849.812 703.829 838.97 -3.27441 364.062 -2.99219 c 0
 -94.1074 -3.27441 -89.0869 707.435 357.541 707.435 c 0
EndSplineSet
EndChar
StartChar: uni030A
Encoding: 778 778 108
Width: 154
Flags: MW
HStem: 788 4
VStem: 6.08691 45.5293 101 45<774.572 808.281>
Fore
51.6162 791.233 m 0
 51.6162 757.523 101 757.143 101 792 c 0
 101 824.561 51.6162 823.793 51.6162 791.233 c 0
6.08691 789.729 m 0
 6.08691 882.819 146 869.66 146 788 c 0
 146 700.579 6.08691 693.354 6.08691 789.729 c 0
EndSplineSet
EndChar
StartChar: quoteleft
Encoding: 8216 8216 109
Width: 187
Flags: MW
HStem: 615.777 130.223
VStem: 39.7568 87.2432
Fore
127 620 m 0
 134 568 47.75 534.51 39.7568 615.777 c 0
 36 680.667 81.6341 735.152 112.665 746 c 1
 98.8252 725.509 96 661 112 645 c 1
 122.705 637.149 126.775 632.579 127 620 c 0
EndSplineSet
EndChar
StartChar: quoteright
Encoding: 8217 8217 110
Width: 187
Flags: W
Fore
55.6094 682.256 m 0
 44.6416 733.566 128.068 773.572 142.271 693.158 c 0
 150.994 628.747 109.673 570.923 79.5654 557.727 c 1
 91.793 579.219 89.6621 643.755 72.4824 658.48 c 1
 61.207 665.487 56.7979 669.731 55.6094 682.256 c 0
EndSplineSet
EndChar
StartChar: quotedblleft
Encoding: 8220 8220 111
Width: 292
Flags: MW
HStem: 615.777 130.223 618.277 130.223
VStem: 39.7568 87.2432 162.257 87.2432
Fore
127 620 m 0xa0
 134 568 47.75 534.51 39.7568 615.777 c 0
 36 680.667 81.6338 735.152 112.665 746 c 1
 98.8252 725.509 96 661 112 645 c 1
 122.705 637.149 126.775 632.579 127 620 c 0xa0
249.5 622.5 m 0x40
 256.5 570.5 170.25 537.01 162.257 618.277 c 0
 158.5 683.167 204.134 737.652 235.165 748.5 c 1
 221.325 728.009 218.5 663.5 234.5 647.5 c 1
 245.205 639.649 249.275 635.079 249.5 622.5 c 0x40
EndSplineSet
EndChar
StartChar: quotedblright
Encoding: 8221 8221 112
Width: 358
Flags: W
Fore
55.6094 682.256 m 0
 44.6416 733.566 128.068 773.572 142.271 693.158 c 0
 150.994 628.747 109.673 570.923 79.5654 557.727 c 1
 91.793 579.219 89.6621 643.755 72.4824 658.48 c 1
 61.207 665.487 56.7979 669.731 55.6094 682.256 c 0
190.609 684.756 m 0
 179.642 736.066 263.068 776.072 277.271 695.658 c 0
 285.994 631.247 244.673 573.423 214.565 560.227 c 1
 226.793 581.719 224.662 646.255 207.482 660.98 c 1
 196.207 667.987 191.798 672.231 190.609 684.756 c 0
EndSplineSet
EndChar
StartChar: uniFFFF
Encoding: 65535 65535 113
Width: 1193
Flags: HW
TeX: 0 0 0 0
Fore
317.717 364.908 m 5
 326.552 358.6 351.787 295.508 351.787 295.508 c 5
 351.787 295.508 335.384 261.438 335.384 256.392 c 4
 335.384 251.343 302.576 224.847 302.576 224.847 c 5
 257.15 280.366 l 5
 257.15 280.366 243.271 308.125 248.318 315.698 c 4
 253.364 323.267 293.743 364.908 293.743 364.908 c 5
 317.717 364.908 l 5
759.354 145.351 m 5
 753.047 146.613 l 5
 755.569 159.231 l 5
 754.307 164.277 l 5
 727.809 179.421 l 5
 712.667 188.253 l 5
 707.621 193.298 l 5
 701.312 204.657 l 5
 676.072 213.488 l 5
 664.718 221.061 l 5
 645.792 214.752 l 5
 629.389 203.394 l 5
 602.889 197.085 l 5
 602.889 197.085 581.438 190.776 573.868 190.776 c 4
 566.297 190.776 562.511 199.607 562.511 199.607 c 5
 557.464 202.133 l 5
 559.987 218.538 l 5
 566.297 226.106 l 5
 581.438 223.583 l 5
 592.795 226.106 l 5
 611.722 239.988 l 5
 620.554 250.083 l 5
 620.554 260.178 l 5
 587.747 262.7 l 5
 577.653 257.654 l 5
 566.297 256.392 l 5
 546.107 258.914 l 6
 543.165 259.555 540.679 262.525 540.333 264.56 c 4
 540.465 268.322 538.976 270.628 546.022 278.161 c 6
 553.679 284.149 l 5
 578.914 291.722 l 5
 610.458 296.771 l 5
 602.889 324.529 l 5
 610.458 344.72 l 5
 608.681 348.983 606.635 351.023 601.628 351.027 c 6
 575.128 351.027 l 5
 561.249 351.027 l 5
 558.725 361.123 l 5
 552.415 361.123 l 5
 549.892 368.691 l 5
 552.415 383.835 l 5
 551.826 389.78 549.308 397.517 551.155 401.5 c 6
 562.511 421.689 l 5
 585.223 440.615 l 5
 599.104 454.496 l 5
 605.413 472.162 l 6
 607.21 478.434 608.146 484.992 607.936 489.827 c 5
 619.293 497.398 l 5
 623.945 497.257 629.081 492.646 629.398 488.267 c 5
 629.389 488.565 l 5
 630.647 459.545 l 5
 638.221 446.925 l 5
 644.529 433.046 l 5
 669.765 409.07 l 5
 671.028 396.453 l 5
 695 375 l 5
 705.096 369.955 l 5
 746.737 361.123 l 5
 780.806 343.456 l 5
 846.421 290.462 l 5
 895.632 246.297 l 5
 918.344 210.965 l 5
 981.433 141.564 l 5
 1026.86 94.8789 l 5
 1074.81 58.2852 l 5
 1086.17 -8.5918 l 5
 1063.45 -42.6611 l 5
 1039.48 -52.7549 l 5
 1040.74 -43.9229 l 5
 1047.05 -16.1611 l 5
 1044.53 12.8604 l 5
 1023.08 40.6191 l 5
 894.368 140.305 l 5
 884.274 130.21 l 5
 865.348 126.423 l 5
 853.992 117.592 l 5
 870.396 110.021 l 5
 866.61 94.8789 l 5
 816.135 96.1396 l 5
 773.234 116.329 l 5
 754.307 126.423 l 5
 745.475 141.564 l 5
 759.354 145.351 l 5
618.03 387.621 m 5
 587.747 402.763 l 5
 582.7 420.429 l 5
 583.963 433.046 l 5
 586.066 439.356 588.666 442.184 591.533 443.141 c 4
 597.06 443.651 601.407 442.389 605.413 440.615 c 4
 611.886 435.931 614.867 426.585 619.293 419.165 c 5
 618.03 387.621 l 5
597.841 433.046 m 5
 603.643 434.888 612.025 425.866 611.722 420.429 c 6
 611.722 420.429 610.458 409.07 609.197 404.025 c 4
 607.936 398.977 601.628 406.548 601.628 406.548 c 5
 601.628 406.548 596.58 416.643 594.058 421.689 c 4
 591.533 426.738 597.841 433.046 597.841 433.046 c 5
342.766 453.82 m 5
 308.698 462.655 l 5
 316.729 473.205 332.213 482.422 331.411 496.722 c 5
 338.228 497.146 333.577 466.356 342.766 453.82 c 5
556.202 390.144 m 5
 560.164 390.623 566.374 382.499 566.297 380.05 c 5
 562.79 380.326 558.97 379.344 556.202 382.572 c 5
 556.202 390.144 l 5
607.936 295.508 m 5
 619.293 258.914 l 5
 605.413 263.963 l 5
 607.936 295.508 l 5
547.369 269.008 m 4
 552.536 273.973 557.902 278.381 565.033 277.84 c 4
 573.461 277.359 578.097 272.691 580.178 269.008 c 6
 581.932 260.262 l 5
 578.106 257.9 570.865 256.983 556.696 258.998 c 5
 549.88 261.806 545.618 267.224 547.369 269.008 c 4
381.336 435.569 m 6
 354.527 451.977 l 6
 345.502 458.28 337.687 459.622 333.386 458.281 c 6
 318.244 454.496 l 5
 324.553 438.092 l 5
 332.684 434.294 346.911 423.457 347.267 416.643 c 6
 349.789 390.144 l 5
 349.789 375 l 5
 352.314 363.646 l 5
 330.862 353.55 l 5
 310.673 354.813 l 5
 327.706 350.72 l 5
 325.394 342.411 320.306 330.399 320.768 325.792 c 6
 320.768 325.792 323.605 300.873 323.291 294.244 c 4
 323.047 289.048 325.816 267.746 325.816 267.746 c 5
 347.267 234.941 l 5
 345.829 223.625 346.257 210.075 340.957 203.394 c 4
 333.972 196.952 328.631 194.176 323.291 192.038 c 5
 323.291 192.038 306.888 195.824 304.364 200.871 c 4
 301.841 205.918 300.577 226.106 300.577 226.106 c 6
 299.92 231.628 305.627 235.361 308.149 239.988 c 5
 272.819 286.675 l 5
 242.534 318.221 l 5
 237.487 301.816 l 5
 218.562 296.771 l 6
 213.313 295.081 201.297 298.654 199.632 301.816 c 4
 198.588 307.147 204.338 325.336 208.468 325.792 c 6
 222.346 327.053 l 5
 227.394 343.456 l 5
 204.682 377.526 l 5
 190.801 411.594 l 5
 191.302 430.101 194.985 448.606 197.108 467.115 c 4
 199.52 476.669 195.315 476.773 208.879 502.26 c 5
 233.702 530.206 l 5
 242.392 535.339 249.398 541.481 266.511 541.562 c 4
 274.833 540.57 284.183 536.489 294.268 530.206 c 4
 299.655 526.697 311.071 506.695 319.507 494.876 c 5
 319.507 494.876 335.18 482.92 343.479 480.995 c 4
 355.17 478.284 378.812 462.068 378.812 462.068 c 6
 389.016 454.86 388.392 447.932 390.169 439.356 c 4
 391.362 433.639 386.444 432.452 381.336 435.569 c 6
260.937 416.643 m 4
 261.697 425.681 275.334 427.399 279.862 422.951 c 5
 287.435 408.446 l 5
 277.762 405.287 271.287 401.221 265.027 404.539 c 5
 260.834 408.342 261.173 409.483 260.937 416.643 c 4
227.362 343.049 m 5
 232.408 336.739 244.325 324.242 241.382 314.179 c 5
 219.297 301.816 l 5
 226.867 319.482 l 6
 229.349 326.469 228.157 335.039 227.362 343.049 c 5
EndSplineSet
EndChar
StartChar: uni2708
Encoding: 9992 9992 114
Width: 1250
Flags: HW
TeX: 0 0 0 0
Fore
416.18 386.941 m 2
 390.555 402.872 l 2
 385.451 406.493 380.75 408.428 376.912 409.135 c 1
 374.824 410 371.879 409.409 368.941 408.588 c 1
 366.538 408.027 l 1
 355.876 405.319 l 1
 361.904 389.392 l 1
 369.677 385.703 383.274 375.18 383.615 368.563 c 2
 386.025 342.834 l 1
 386.025 328.13 l 1
 388.44 317.104 l 1
 367.936 307.302 l 1
 362.735 307.633 l 1
 364.285 304.708 l 1
 364.919 304.554 l 1
 364.725 303.857 l 1
 374.973 283.87 387.936 250.942 387.936 250.942 c 1
 387.936 250.942 372.256 217.86 372.256 212.96 c 0
 372.256 212.493 371.97 211.834 371.453 211.028 c 1
 383.615 192.133 l 1
 382.239 181.145 382.65 167.987 377.584 161.501 c 0
 370.908 155.245 365.802 152.549 360.698 150.475 c 1
 360.698 150.475 345.02 154.151 342.606 159.051 c 0
 340.196 163.95 338.99 183.555 338.99 183.555 c 2
 338.94 183.965 338.928 184.362 338.948 184.753 c 1
 297.479 236.24 l 1
 297.479 236.24 286.516 258.516 288.147 268.089 c 1
 283.511 272.996 l 1
 282.678 270.248 l 2
 282.61 269.853 282.521 269.459 282.409 269.071 c 1
 282.303 269.012 l 1
 278.686 257.068 l 1
 260.597 252.168 l 2
 255.58 250.529 244.094 253.999 242.502 257.068 c 0
 241.505 262.244 247.002 279.905 250.946 280.349 c 2
 264.213 281.572 l 1
 269.008 297.5 l 1
 247.327 330.582 l 1
 234.061 363.661 l 1
 234.541 381.631 238.062 399.601 240.092 417.571 c 0
 242.396 426.849 238.379 426.95 251.342 451.697 c 1
 275.067 478.833 l 1
 283.372 483.817 290.072 489.781 306.426 489.858 c 0
 314.382 488.896 323.321 484.934 332.959 478.833 c 0
 338.107 475.426 349.019 456.003 357.082 444.527 c 1
 357.082 444.527 361.536 441.075 366.874 437.633 c 1
 368.709 436.473 l 1
 372.679 434.153 l 1
 375.338 432.703 377.909 431.539 379.996 431.049 c 0
 391.171 428.418 413.765 412.671 413.765 412.671 c 2
 423.52 405.672 422.915 398.944 424.621 390.617 c 0
 425.758 385.066 421.062 383.914 416.18 386.941 c 2
777.498 105.141 m 1
 771.467 106.367 l 1
 773.879 118.619 l 1
 772.673 123.519 l 1
 772.673 123.519 757.202 132.455 747.343 138.223 c 24
 741.681 141.535 738.251 143.043 732.873 146.799 c 24
 730.675 148.334 729.56 149.483 728.05 151.698 c 24
 725.289 155.749 726.129 160.054 722.019 162.727 c 24
 713.647 168.169 697.896 171.303 697.896 171.303 c 1
 687.041 178.654 l 1
 668.952 172.528 l 1
 653.273 161.501 l 1
 627.943 155.375 l 1
 627.943 155.375 607.439 149.249 600.204 149.249 c 0
 592.969 149.249 589.35 157.824 589.35 157.824 c 1
 584.524 160.277 l 1
 586.938 176.205 l 1
 592.969 183.555 l 1
 607.439 181.104 l 1
 618.296 183.555 l 1
 636.388 197.032 l 1
 644.829 206.835 l 1
 644.829 216.637 l 1
 643.21 216.764 l 1
 643.623 215.41 l 1
 639.091 217.084 l 1
 613.471 219.086 l 1
 603.823 214.187 l 1
 592.969 212.96 l 1
 573.671 215.41 l 2
 570.86 216.032 568.482 218.917 568.151 220.892 c 1
 568.151 220.892 566.833 226.762 573.589 234.099 c 2
 580.908 239.914 l 1
 605.029 247.267 l 1
 635.179 252.168 l 1
 627.943 279.122 l 1
 635.179 298.726 l 1
 633.48 302.867 631.525 304.847 626.737 304.852 c 2
 601.41 304.852 l 1
 588.144 304.852 l 1
 585.731 314.654 l 1
 579.699 314.654 l 1
 577.289 322.004 l 1
 579.699 336.708 l 1
 579.138 342.48 576.729 349.992 578.496 353.859 c 2
 589.35 373.463 l 1
 611.058 391.841 l 1
 624.324 405.319 l 1
 630.356 422.474 l 2
 632.075 428.562 632.968 434.929 632.769 439.625 c 1
 643.623 446.977 l 1
 648.07 446.84 652.97 442.363 653.273 438.11 c 1
 653.273 438.401 l 1
 654.477 410.222 l 1
 661.715 397.967 l 1
 667.743 384.491 l 1
 667.743 384.491 684.275 371.857 691.864 361.212 c 24
 694.651 357.302 690.244 352.84 693.073 348.96 c 24
 700.188 339.202 706.512 335.617 715.987 328.13 c 24
 719.299 325.514 721.563 324.339 725.635 323.229 c 24
 740.955 319.055 750.476 319.974 765.438 314.654 c 24
 778.962 309.846 786.352 305.888 798 297.5 c 24
 823.675 279.012 836.724 266.666 860.717 246.042 c 24
 879.542 229.86 891.244 221.696 907.754 203.158 c 24
 918.284 191.335 929.462 168.853 929.462 168.853 c 1
 989.764 101.465 l 1
 1033.19 56.1338 l 1
 1033.19 56.1338 1058.1 35.5392 1068 18 c 24
 1080.66 -4.43848 1089.87 -44.3359 1089.87 -44.3359 c 1
 1068.16 -77.416 l 1
 1045.25 -87.2178 l 1
 1046.45 -78.6416 l 1
 1052.48 -51.6855 l 1
 1050.07 -23.5059 l 1
 1029.57 3.44727 l 1
 906.545 100.241 l 1
 896.897 90.4395 l 1
 878.806 86.7637 l 1
 867.954 78.1875 l 1
 883.634 70.835 l 1
 880.015 56.1338 l 1
 880.015 56.1338 850.1 53.0803 831.771 57.3574 c 24
 814.508 61.3857 790.762 76.9609 790.762 76.9609 c 1
 772.673 86.7637 l 1
 764.231 101.465 l 1
 777.498 105.141 l 1
EndSplineSet
EndChar
